<?xml version="1.0" standalone="no"?>
<!DOCTYPE svg PUBLIC "-//W3C//DTD SVG 1.1//EN" "http://www.w3.org/Graphics/SVG/1.1/DTD/svg11.dtd" >
<!--
2013-9-30: Created.
-->
<svg>
<metadata>
Created by iconfont
</metadata>
<defs>

<font id="iconfont" horiz-adv-x="1024" >
  <font-face
    font-family="iconfont"
    font-weight="500"
    font-stretch="normal"
    units-per-em="1024"
    ascent="896"
    descent="-128"
  />
    <missing-glyph />
    
    <glyph glyph-name="gouwuchekong" unicode="&#983417;" d="M332.8 105.472q19.456 0 36.864-7.168t30.208-19.968 20.48-30.208 7.68-36.864-7.68-36.864-20.48-30.208-30.208-20.48-36.864-7.68q-20.48 0-37.888 7.68t-30.208 20.48-20.48 30.208-7.68 36.864 7.68 36.864 20.48 30.208 30.208 19.968 37.888 7.168zM758.784 103.424q19.456 0 37.376-7.168t30.72-19.968 20.48-30.208 7.68-36.864-7.68-36.864-20.48-30.208-30.72-20.48-37.376-7.68-36.864 7.68-30.208 20.48-20.48 30.208-7.68 36.864 7.68 36.864 20.48 30.208 30.208 19.968 36.864 7.168zM930.816 685.056q28.672 0 44.544-7.68t22.528-18.944 6.144-24.064-3.584-22.016-13.312-37.888-22.016-62.976-23.552-68.096-18.944-53.248q-13.312-40.96-33.28-56.832t-49.664-15.872l-35.84 0-65.536 0-86.016 0-96.256 0-253.952 0 14.336-92.16 517.12 0q49.152 0 49.152-41.984 0-20.48-9.728-35.84t-38.4-14.336l-49.152 0-94.208 0-118.784 0-119.808 0-99.328 0-55.296 0q-20.48 0-34.304 9.216t-23.04 24.064-14.848 32.256-8.704 32.768q-1.024 6.144-5.632 29.696t-11.264 58.88-14.848 78.848-16.384 87.552q-19.456 103.424-44.032 230.4l-76.8 0q-15.36 0-25.6 7.68t-16.896 18.432-9.216 23.04-2.56 22.528q0 20.48 13.824 33.792t37.376 12.288l103.424 0q20.48 0 32.768-6.144t19.456-15.36 10.24-18.944 5.12-16.896q2.048-8.192 4.096-23.04t4.096-30.208q3.072-18.432 6.144-38.912l700.416 0zM892.928 593.92l-641.024 2.048 35.84-185.344 535.552-1.024z"  horiz-adv-x="1028" />

    
    <glyph glyph-name="gouwucheman" unicode="&#13387;" d="M346.112 89.088q19.456 0 36.864-7.168t30.208-19.968 20.48-30.208 7.68-36.864-7.68-36.864-20.48-30.208-30.208-20.48-36.864-7.68q-20.48 0-37.888 7.68t-30.208 20.48-20.48 30.208-7.68 36.864 7.68 36.864 20.48 30.208 30.208 19.968 37.888 7.168zM772.096 87.04q19.456 0 37.376-7.168t30.72-19.968 20.48-30.208 7.68-36.864-7.68-36.864-20.48-30.208-30.72-20.48-37.376-7.68-36.864 7.68-30.208 20.48-20.48 30.208-7.68 36.864 7.68 36.864 20.48 30.208 30.208 19.968 36.864 7.168zM944.128 668.672q28.672 0 44.544-7.68t22.528-18.944 6.144-24.064-3.584-22.016-13.312-37.888-22.016-62.976-23.552-68.096-18.944-53.248q-13.312-40.96-33.28-56.832t-49.664-15.872l-35.84 0-65.536 0-86.016 0-96.256 0-253.952 0 14.336-92.16 517.12 0q49.152 0 49.152-41.984 0-20.48-9.728-35.328t-38.4-14.848l-49.152 0-94.208 0-118.784 0-119.808 0-99.328 0-55.296 0q-20.48 0-34.304 9.216t-23.04 24.064-14.848 32.256-8.704 32.768q-1.024 6.144-5.632 29.696t-11.264 58.88-14.848 78.848-16.384 87.552q-19.456 103.424-44.032 230.4l-76.8 0q-15.36 0-25.6 7.68t-16.896 18.432-9.216 23.04-2.56 22.528q0 20.48 13.824 33.792t37.376 13.312l21.504 0 21.504 0 25.6 0 34.816 0q20.48 0 32.768-6.144t19.456-15.36 10.24-19.456 5.12-17.408q2.048-8.192 4.096-23.04t4.096-30.208q3.072-18.432 6.144-38.912l700.416 0zM867.328 701.44l-374.784 0 135.168 135.168q23.552 23.552 51.712 24.064t51.712-23.04z"  horiz-adv-x="1024" />

    
    <glyph glyph-name="my" unicode="&#59275;" d="M800 512c0 160-128 288-288 288s-288-128-288-288c0-108.8 57.6-201.6 147.2-249.6-121.6-48-214.4-153.6-240-288-3.2-16 6.4-35.2 25.6-38.4h6.4c16 0 28.8 9.6 32 25.6 28.8 150.4 160 259.2 313.6 262.4h6.4c156.8 0 284.8 128 284.8 288zM288 512c0 124.8 99.2 224 224 224s224-99.2 224-224c0-121.6-99.2-220.8-220.8-224h-9.6c-121.6 3.2-217.6 102.4-217.6 224zM723.2 220.8c-16 9.6-35.2 6.4-44.8-9.6-9.6-16-6.4-35.2 9.6-44.8 73.6-51.2 124.8-121.6 140.8-204.8 3.2-16 16-25.6 32-25.6h6.4c16 3.2 28.8 19.2 25.6 38.4-19.2 99.2-80 185.6-169.6 246.4z"  horiz-adv-x="1024" />

    
    <glyph glyph-name="jiazaishibai" unicode="&#58959;" d="M511.504242-127.500244C297.654661-127.500244 123.689605 38.433734 123.689605 242.395143c0 67.527028 19.29258 133.633749 55.776765 191.145667L484.420467 881.890889C490.399547 890.690592 500.447641 896 511.210386 896c10.726762 0 20.781853-5.277423 26.791918-14.109111L842.785484 434.655266c37.169851-58.464453 56.5254-124.670126 56.5254-192.289109C899.310883 38.433734 725.344828-127.500244 511.504242-127.500244zM439.736285 445.396021c2.858604 2.854606 2.858604 7.483346 0 10.338952l-10.347947 10.338952c-2.856605 2.855606-7.490343 2.855606-10.347947 0l-46.566263-46.524283-46.565263 46.524283c-2.858604 2.855606-7.491342 2.855606-10.348947 0L305.210971 455.734973c-2.857605-2.855606-2.857605-7.484346 0-10.338952l46.566263-46.525283-46.566263-46.524283c-2.857605-2.855606-2.857605-7.483346 0-10.338952l10.347947-10.339951c2.857605-2.854606 7.490343-2.854606 10.348947 0l46.565263 46.525283 46.566263-46.525283c2.857605-2.854606 7.490343-2.854606 10.347947 0l10.347947 10.339951c2.858604 2.854606 2.858604 7.482347 0 10.338952l-46.565263 46.524283L439.736285 445.396021zM526.135098 223.413411c-99.309509 0-179.968125-71.579049-182.929679-160.835467 0 0 93.167508 50.261458 185.469439 50.261458 90.610756 0 180.389919-50.261458 180.389919-50.261458C706.103223 151.834362 625.444607 223.413411 526.135098 223.413411zM732.423371 445.396021c2.856605 2.854606 2.856605 7.483346 0 10.338952l-10.348947 10.338952c-2.857605 2.855606-7.490343 2.855606-10.347947 0l-46.567262-46.525283-46.566263 46.525283c-2.856605 2.855606-7.490343 2.855606-10.346948 0L597.898058 455.734973c-2.856605-2.855606-2.856605-7.484346 0-10.338952l46.567262-46.525283-46.567262-46.524283c-2.856605-2.855606-2.856605-7.483346 0-10.338952l10.348947-10.339951c2.855606-2.854606 7.489343-2.854606 10.346948 0l46.566263 46.525283 46.567262-46.525283c2.856605-2.854606 7.489343-2.854606 10.347947 0l10.348947 10.339951c2.856605 2.854606 2.856605 7.482347 0 10.338952l-46.566263 46.524283L732.423371 445.396021z"  horiz-adv-x="1024" />

    
    <glyph glyph-name="56" unicode="&#58936;" d="M761.354-64.218h-486.487c-91.773 0-166.429 74.655-166.429 166.428l0 422.474c0 91.773 74.656 166.429 166.429 166.429 21.216 0 38.407-17.197 38.407-38.407s-17.191-38.407-38.407-38.407c-49.414 0-89.616-40.202-89.616-89.616v-422.475c0-49.413 40.202-89.615 89.616-89.615l486.487-0c49.408 0 89.617 40.202 89.617 89.615v422.475c0 49.415-40.209 89.616-89.617 89.616-21.215 0-38.405 17.197-38.405 38.407s17.189 38.407 38.405 38.407c91.768 0 166.429-74.656 166.429-166.429v-422.475c-0.001-91.772-74.662-166.427-166.429-166.427zM480.34 652.707h75.539zM555.88 614.301h-75.538c-21.215 0-38.406 17.197-38.406 38.407s17.191 38.407 38.406 38.407h75.538c21.215 0 38.407-17.197 38.407-38.407s-17.192-38.407-38.407-38.407zM671.65 548.338c-21.215 0-38.405 17.197-38.405 38.409 0 91.959-52.723 169.655-115.135 169.655-62.409 0-115.132-77.696-115.132-169.655 0-21.212-17.191-38.409-38.406-38.409-21.216 0-38.407 17.197-38.407 38.409 0 135.905 86.103 246.467 191.945 246.467 105.846 0 191.947-110.562 191.947-246.467-0-21.212-17.192-38.409-38.407-38.409z"  horiz-adv-x="1024" />

    
    <glyph glyph-name="saoyisao" unicode="&#58904;" d="M403.2 345.6 76.8 345.6C32 345.6 0 313.6 0 275.2l0-326.4C0-96 32-128 76.8-128l326.4 0c38.4 0 70.4 32 70.4 70.4L473.6 275.2C480 313.6 441.6 345.6 403.2 345.6zM428.8-57.6c0-12.8-12.8-25.6-25.6-25.6L76.8-83.2c-12.8 0-25.6 12.8-25.6 25.6L51.2 275.2c0 12.8 12.8 25.6 25.6 25.6l326.4 0c12.8 0 25.6-12.8 25.6-25.6L428.8-57.6zM403.2 896 76.8 896C32 896 0 864 0 825.6l0-326.4c0-38.4 32-70.4 70.4-70.4l326.4 0c38.4 0 70.4 32 70.4 70.4L467.2 825.6C480 864 441.6 896 403.2 896zM428.8 492.8c0-12.8-12.8-25.6-25.6-25.6L76.8 467.2C64 467.2 51.2 480 51.2 492.8L51.2 825.6c0 12.8 12.8 25.6 25.6 25.6l326.4 0c12.8 0 25.6-12.8 25.6-25.6L428.8 492.8zM947.2 345.6 620.8 345.6c-38.4 0-70.4-32-70.4-70.4l0-326.4c0-38.4 32-70.4 70.4-70.4L896-121.6c12.8 0 25.6 12.8 25.6 25.6 0 12.8-12.8 25.6-25.6 25.6L620.8-70.4c-12.8 0-25.6 12.8-25.6 25.6L595.2 275.2c0 12.8 12.8 25.6 25.6 25.6l326.4 0c12.8 0 25.6-12.8 25.6-25.6l0-275.2c0-12.8 12.8-25.6 25.6-25.6s25.6 12.8 25.6 25.6L1024 275.2C1024 313.6 992 345.6 947.2 345.6zM723.2 224c-25.6 0-51.2-25.6-51.2-51.2l0-128c0-25.6 25.6-51.2 51.2-51.2l121.6 0c25.6 0 51.2 25.6 51.2 51.2l0 128c0 25.6-25.6 51.2-51.2 51.2L723.2 224zM947.2 896 620.8 896C582.4 896 544 864 544 825.6l0-326.4c0-38.4 32-70.4 70.4-70.4l326.4 0c38.4 0 70.4 32 70.4 70.4L1011.2 825.6C1024 864 992 896 947.2 896zM972.8 492.8c0-12.8-12.8-25.6-25.6-25.6L620.8 467.2c-12.8 0-25.6 12.8-25.6 25.6L595.2 825.6c0 12.8 12.8 25.6 25.6 25.6l326.4 0c12.8 0 25.6-12.8 25.6-25.6L972.8 492.8z"  horiz-adv-x="1024" />

    
    <glyph glyph-name="shouye" unicode="&#58896;" d="M730.402195 15.943366 293.632597 15.943366c-97.240695 0-123.57548 33.3035-123.57548 137.02377L170.057117 449.945945c0 14.601556 11.485589 26.437116 25.703405 26.437116 14.182001 0 25.666566-11.835559 25.666566-26.437116l0-296.979832c0-75.531254 3.048429-84.182284 72.205509-84.182284l436.769598 0c69.122287 0 81.939197 8.651031 81.939197 84.182284L812.341393 449.945945c0 14.601556 11.520381 26.437116 25.701358 26.437116 14.183024 0 25.703405-11.835559 25.703405-26.437116l0-296.979832C863.746156 49.246867 827.643913 15.943366 730.402195 15.943366L730.402195 15.943366zM527.442714 704.519967 103.526865 376.585123c-4.624321-3.605108-10.04989-5.322216-15.443737-5.322216-7.77508 0-15.47853 3.640923-20.520359 10.5421-8.544607 11.658528-6.26775 28.220738 5.078669 36.976146l423.916872 327.968613c11.344373 8.755408 27.452235 6.445806 35.96205-5.216815C541.063943 729.873402 538.78811 713.309144 527.442714 704.519967L527.442714 704.519967zM956.436208 381.805008c-5.04183-6.9022-12.744255-10.5421-20.519336-10.5421-5.392824 0-10.819416 1.716084-15.442714 5.28947l-423.914826 327.96759c-11.345396 8.7902-13.622252 25.317619-5.079692 36.978193 8.54563 11.660574 24.65247 13.9712 35.963073 5.251607l423.915849-327.968613C962.703959 409.994024 964.981838 393.463536 956.436208 381.805008L956.436208 381.805008z"  horiz-adv-x="1024" />

    
    <glyph glyph-name="gouwuche" unicode="&#59143;" d="M289.92 128c2.56 0 632.32 0 639.36 0 14.72 0 26.24 12.8 28.16 28.8 0 0 43.52 244.48 64 413.44C1027.2 616.96 1004.8 640 961.92 640L264.96 640 253.44 739.84C251.52 755.2 240.64 768 226.56 768 224.64 768 97.92 768 97.92 768c-17.92 0-32-14.08-32-32 0-17.92 14.08-32 32-32l99.84 0 64.64-547.2C263.68 140.8 275.84 128 289.92 128zM960.64 576c-17.28-135.68-46.08-316.16-57.6-384L318.08 192 272.64 576 960.64 576zM321.92 64c-35.2 0-64-28.8-64-64 0-35.2 28.8-64 64-64 35.2 0 64 28.8 64 64C385.92 35.2 357.12 64 321.92 64zM897.92 64c-35.2 0-64-28.8-64-64 0-35.2 28.8-64 64-64 35.2 0 64 28.8 64 64C961.92 35.2 933.12 64 897.92 64z"  horiz-adv-x="1024" />

    
    <glyph glyph-name="saoyisao1" unicode="&#59058;" d="M135.77675 18.361379 135.77675 271.929203 79.428502 271.929203l0-281.742654c0-62.240839 50.455658-112.696497 112.696497-112.696497l281.742654 0 0 56.348248L220.299829-66.161699C173.618141-66.161699 135.77675-28.320309 135.77675 18.361379zM981.004712 891.762759 699.262058 891.762759l0-56.348248 253.567823 0c46.680276 0 84.523079-37.842803 84.523079-84.523079l0-253.567823 56.348248 0L1093.701208 779.066262C1093.701208 841.307101 1043.24555 891.762759 981.004712 891.762759zM79.428502 779.066262l0-281.742654 56.348248 0L135.77675 750.891432c0 46.680276 37.842803 84.523079 84.523079 84.523079l253.567823 0L473.867652 891.762759 192.124999 891.762759C129.88416 891.762759 79.428502 841.307101 79.428502 779.066262zM1037.35296 18.361379c0-46.680276-37.842803-84.523079-84.523079-84.523079L699.262058-66.161699l0-56.348248 281.742654 0c62.240839 0 112.696497 50.455658 112.696497 112.696497L1093.701208 271.929203l-56.348248 0L1037.35296 18.361379zM23.080254 412.80053l1126.970615 0 0-56.348248-1126.970615 0 0 56.348248Z"  horiz-adv-x="1174" />

    
    <glyph glyph-name="my1" unicode="&#58944;" d="M651.29551 706.547137c-37.265742 39.005362-86.913489 60.483536-139.78772 60.483536s-102.517885-21.479197-139.789767-60.483536c-36.95568-38.675858-57.305147-90.01206-57.305147-144.552234 0-54.537104 20.349467-105.876376 57.305147-144.549164 10.317996-10.79895 21.587668-20.24509 33.605376-28.269857-40.695864-13.883195-86.888929-37.46938-127.319757-77.57275-67.035766-66.484204-101.137445-160.985508-101.360526-280.875039-0.024559-14.609743 11.794627-26.477025 26.406416-26.5067l0.050142 0c14.589276 0 26.430976 11.816117 26.455535 26.409486 0.252757 135.614677 47.362704 231.374648 140.016941 284.616246 70.254064 40.367383 142.28868 40.835034 143.390781 40.835034l0.118704 0c2.620687 0 5.154393 0.38681 7.54893 1.098008 49.441039 2.328022 95.550193 23.511483 130.670062 60.264549 36.95568 38.671765 57.307194 90.006943 57.307194 144.549164C708.606797 616.535077 688.25119 667.870256 651.29551 706.547137zM511.50779 409.876344c-79.499635 0-144.18282 68.238151-144.18282 152.11856 0 83.880409 64.683185 152.122653 144.18282 152.122653 79.503728 0 144.18282-68.243267 144.18282-152.122653C655.689586 478.118588 591.011518 409.876344 511.50779 409.876344zM728.48145 336.335421c-12.598946 7.401574-28.813233 3.193739-36.214806-9.405207-7.40669-12.594853-3.193739-28.808116 9.400091-36.214806 0.206708-0.121773 21.701255-13.797237 43.710524-50.01716 22.382776-36.833907 49.061392-103.733573 49.061392-213.271338 0-14.610766 11.846816-26.456558 26.460652-26.456558 14.609743 0 26.456558 11.845793 26.456558 26.456558C847.356884 263.745149 733.333968 333.48142 728.48145 336.335421z"  horiz-adv-x="1024" />

    
    <glyph glyph-name="shouye1" unicode="&#58920;" d="M1011.34336 420.640768 535.425024 828.571648c-13.30176 11.385856-32.88576 11.385856-46.18752 0L13.319168 420.640768c-11.270144-9.653248-15.335424-25.311232-10.184704-39.236608 5.15072-13.925376 18.429952-23.161856 33.278976-23.161856L178.301952 358.242304l0-392.572928c0-19.582976 15.88736-35.473408 35.472384-35.473408l189.185024 0c19.582976 0 35.47136 15.890432 35.47136 35.473408l0 176.78336 165.536768 0 0-176.78336c0-19.582976 15.890432-35.473408 35.473408-35.473408l189.185024 0c19.582976 0 35.473408 15.890432 35.473408 35.473408L864.099328 359.379968l117.547008 0c12.055552-1.660928 24.957952 3.31776 33.532928 13.287424C1027.924992 387.539968 1026.21696 407.891968 1011.34336 420.640768zM793.151488 1.140736 674.912256 1.140736 674.912256 177.92512c0 19.582976-15.890432 35.472384-35.473408 35.472384L402.95936 213.397504c-19.585024 0-35.473408-15.889408-35.473408-35.472384l0-176.784384L249.244672 1.140736 249.244672 393.71264c0 19.585024-15.88736 35.472384-35.47136 35.472384l-81.475584 0 380.033024 325.73952 376.306688-322.551808-72.174592 0c-8.866816 0-24.387584-6.15424-24.387584-22.909952 0-20.72576 0-50.08384 0-50.08384l1.076224 0L793.151488 1.140736z"  horiz-adv-x="1024" />

    
    <glyph glyph-name="classify" unicode="&#59001;" d="M191.929438 800.035281 64.352811 800.035281C28.789416 800.035281 0 771.245865 0 735.68247s28.789416-63.788313 64.352811-63.788313l128.141125 0c35.563396 0 63.788313 28.789416 63.788313 63.788313S227.492834 800.035281 191.929438 800.035281zM384.987872 671.894157l575.788313 0c35.563396 0 63.788313 28.789416 63.788313 63.788313s-28.789416 63.788313-63.788313 63.788313l-575.788313 0c-35.563396 0-63.788313-28.789416-63.788313-63.788313S349.424476 671.894157 384.987872 671.894157zM191.929438 447.788313 64.352811 447.788313C28.789416 447.788313 0 418.998897 0 384c0-34.998897 28.789416-63.788313 63.788313-63.788313L191.929438 320.211687c35.563396 0 63.788313 28.789416 63.788313 63.788313C255.717751 418.998897 227.492834 447.788313 191.929438 447.788313zM960.211687 447.788313l-575.788313 0c-35.563396 0-63.788313-28.789416-63.788313-63.788313 0-34.998897 28.789416-63.788313 63.788313-63.788313l575.788313 0c35.563396 0 63.788313 28.789416 63.788313 63.788313C1024 418.998897 995.775083 447.788313 960.211687 447.788313zM191.364939 95.541345 63.788313 95.541345C28.224917 95.541345 0 66.751929 0 31.753032c0-34.998897 28.789416-63.788313 63.788313-63.788313L191.929438-32.035281c35.563396 0 63.788313 28.789416 63.788313 63.788313C255.717751 66.751929 226.928335 95.541345 191.364939 95.541345zM960.211687 95.541345l-575.788313 0c-35.563396 0-63.788313-28.789416-63.788313-63.788313 0-34.998897 28.789416-63.788313 63.788313-63.788313l575.788313 0c35.563396 0 63.788313 28.789416 63.788313 63.788313C1024 66.751929 995.775083 95.541345 960.211687 95.541345z"  horiz-adv-x="1025" />

    
    <glyph glyph-name="my2" unicode="&#58894;" d="M510.492-71.991c-249.363 0-452.474 203.11-452.474 452.474s203.11 452.474 452.474 452.474c249.363 0 452.474-203.11 452.474-452.474 0-249.869-202.608-452.474-452.474-452.474zM510.492 782.678c-222.214 0-402.701-180.486-402.701-402.701s180.486-402.701 402.701-402.701c222.214 0 402.701 180.486 402.701 402.701 0 222.214-180.486 402.701-402.701 402.701zM780.971 151.729c-8.548 0-17.093 4.525-21.617 12.567-28.155 50.275-67.369 88.485-116.637 114.626-6.537 3.518-11.562 10.054-13.072 17.597-1.508 7.54 0.502 15.084 5.531 21.115l5.028 6.032c25.639 28.657 37.204 41.729 37.204 106.583 0 65.861-78.429 170.935-170.935 170.935-94.014 0-170.935-76.921-170.935-170.935 0-41.729 15.084-81.444 42.23-112.617 5.028-5.531 7.041-13.573 5.531-21.115-1.508-7.54-6.032-14.077-13.072-17.597-49.269-26.142-88.485-64.854-116.637-114.626-6.537-12.066-22.121-16.090-34.188-9.552-12.066 6.537-16.090 22.121-9.552 34.188 28.155 49.772 65.356 89.991 111.612 119.654-23.631 35.696-36.7 78.429-36.7 121.666 0 121.666 99.043 220.707 220.707 220.707 126.191 0 220.707-133.732 220.707-220.707 0-66.864-12.567-94.516-35.191-122.669 45.248-29.663 82.451-69.379 110.101-118.649 6.537-12.066 2.513-27.149-9.552-34.188-2.011-1.508-6.032-3.018-10.559-3.018z"  horiz-adv-x="1024" />

    
    <glyph glyph-name="scan" unicode="&#58900;" d="M1157.063 429.693h-1115.219c-23.098 0-41.844-18.746-41.844-41.844 0-23.098 18.746-41.844 41.844-41.844h1115.219c23.098 0 41.844 18.746 41.844 41.844-0 23.098-18.746 41.844-41.844 41.844v0zM434.003-44.313h-169.049c-53.727 0-97.58 43.852-97.58 97.58v161.517c0 23.098-18.746 41.844-41.844 41.844-23.098 0-41.844-18.746-41.844-41.844v-161.517c0-99.923 81.177-181.1 181.267-181.1h169.049c23.098 0 41.844 18.746 41.844 41.844-0 22.93-18.746 41.676-41.844 41.676v0zM1073.376 256.628c-23.098 0-41.844-18.746-41.844-41.844v-161.517c0-53.727-43.852-97.58-97.58-97.58l-169.049 0c-23.098 0-41.844-18.746-41.844-41.844s18.746-41.844 41.844-41.844h169.049c99.923 0 181.267 81.344 181.267 181.267v161.517c0 23.098-18.746 41.844-41.844 41.844v0zM763.23 812.313h169.049c53.727 0 97.58-43.852 97.58-97.58v-161.517c0-23.098 18.746-41.844 41.844-41.844 23.098 0 41.844 18.746 41.844 41.844l-0 161.517c0 99.923-81.344 181.267-181.267 181.267h-169.049c-23.098 0-41.844-18.746-41.844-41.844 0.167-23.098 18.746-41.844 41.844-41.844v0zM123.857 511.54c23.098 0 41.844 18.746 41.844 41.844v161.349c0 53.727 43.852 97.58 97.58 97.58h169.049c23.098 0 41.844 18.746 41.844 41.844 0 23.098-18.746 41.844-41.844 41.844h-169.049c-99.923 0-181.267-81.344-181.267-181.267v-161.517c0-23.098 18.746-41.676 41.844-41.676v0z"  horiz-adv-x="1199" />

    
    <glyph glyph-name="my3" unicode="&#58976;" d="M144.980999-31.265842c-0.720408 0-1.468444 0.038886-2.273786 0.11768-0.344854-0.021489-0.690732-0.038886-1.044796-0.038886-12.95608 0-23.496134 10.543124-23.496134 23.50125 0 105.194854 40.96704 204.094328 115.353215 278.482549 45.085848 45.088918 100.295264 78.57559 160.399153 97.414657-33.668821 19.294438-62.21804 46.553269-83.122139 79.501682-24.13877 38.045501-36.897352 82.026178-36.897352 127.187751 0 131.287115 106.812701 238.09777 238.10391 238.09777 131.287115 0 238.095723-106.810654 238.095723-238.09777 0-45.162596-12.757558-89.143273-36.893258-127.187751-20.904099-32.949436-49.451272-60.207243-83.120093-79.502705 60.099796-18.833951 115.308189-52.320623 160.397107-97.414657 74.386174-74.388221 115.353215-173.289742 115.352191-278.482549 0-11.202133-7.961322-20.88568-18.939351-23.045879-1.658779-0.355087-3.327792-0.533143-4.962012-0.533143L144.980999-31.265842zM858.053504 15.726425l-0.282433 4.50664 0.419556 0c-14.300704 179.574888-165.182087 319.356468-346.189603 319.356468-181.007517 0-331.888899-139.78158-346.18858-319.356468l0.411369 0-0.279363-4.50664L858.053504 15.726425zM512.001023 766.00225c-8.611122 0-17.344017-0.595564-25.956162-1.77032-94.2772-12.788258-165.368328-94.282317-165.368328-189.564403 0-105.496729 85.827761-191.32449 191.32449-191.32449s191.32449 85.828784 191.32449 191.32449c0 95.160313-70.988798 176.640046-165.124781 189.530634C529.502629 765.39543 520.688893 766.00225 512.001023 766.00225z"  horiz-adv-x="1024" />

    
    <glyph glyph-name="classify1" unicode="&#58914;" d="M1258.0352 310.4256 295.5264 310.4256C255.1296 310.4256 222.4128 343.1424 222.4128 383.5392L222.4128 384.4608C222.4128 424.8576 255.1296 457.6256 295.5264 457.6256L1258.0352 457.6256C1298.432 457.6256 1331.2 424.8576 1331.2 384.4608L1331.2 383.5392C1331.2 343.1424 1298.432 310.4256 1258.0352 310.4256ZM1258.3936 750.3872 295.2192 750.3872C254.976 750.3872 222.4128 783.0016 222.4128 823.1936 222.4128 863.3856 254.976 896 295.2192 896L1258.3936 896C1298.5856 896 1331.2 863.3856 1331.2 823.1936 1331.2 783.0016 1298.5856 750.3872 1258.3936 750.3872ZM73.5744-128C32.9728-128 0-95.3856 0-55.1936 0-15.0016 32.9728 17.6128 73.5744 17.6128 114.2272 17.6128 147.2-15.0016 147.2-55.1936 147.2-95.3856 114.2272-128 73.5744-128ZM73.5744 310.4256C32.9728 310.4256 0 343.3472 0 384 0 424.6528 32.9728 457.6256 73.5744 457.6256 114.2272 457.6256 147.2 424.6528 147.2 384 147.2 343.3472 114.2272 310.4256 73.5744 310.4256ZM73.5744 750.3872C32.9728 750.3872 0 783.0016 0 823.1936 0 863.3856 32.9728 896 73.5744 896 114.2272 896 147.2 863.3856 147.2 823.1936 147.2 783.0016 114.2272 750.3872 73.5744 750.3872ZM295.2192 17.6128 1258.3936 17.6128C1298.5856 17.6128 1331.2-15.0016 1331.2-55.1936 1331.2-95.3856 1298.5856-128 1258.3936-128L295.2192-128C254.976-128 222.4128-95.3856 222.4128-55.1936 222.4128-15.0016 254.976 17.6128 295.2192 17.6128Z"  horiz-adv-x="1332" />

    
    <glyph glyph-name="qicheqianlian-" unicode="&#58905;" d="M908.629 152.235h-650.752c-19.285 0-37.376 7.509-50.859 21.163-13.483 13.653-20.992 31.573-20.821 50.859l2.389 479.232c0 19.115-6.656 31.915-39.765 37.205h-0.171l-95.573 16.384c-9.216 1.536-15.531 10.411-13.995 19.627 1.536 9.216 10.411 15.531 19.627 13.995l95.403-16.384c45.397-7.168 68.437-31.061 68.437-70.997l-2.389-479.403c0-10.069 3.755-19.456 10.923-26.453 7.168-7.168 16.555-11.093 26.624-11.093h650.752c9.387 0 17.067-7.68 17.067-17.067s-7.509-17.067-16.896-17.067zM859.989 250.197l-602.624 1.877c-18.944 0.171-36.693 7.509-50.005 20.992s-20.48 31.232-20.48 50.176l1.877 353.963 681.813-50.859c30.891-1.195 55.125-26.283 55.125-57.173v-253.44c0-36.181-29.525-65.536-65.707-65.536zM257.707 286.208l602.453-1.877c17.408 0 31.573 14.165 31.573 31.403v253.44c0 12.459-9.899 22.699-22.357 23.040h-0.683l-645.632 48.128-1.536-317.44c0-9.728 3.755-18.944 10.581-25.941 6.485-6.827 15.701-10.752 25.6-10.752zM260.437 95.915c0-35.158 28.501-63.659 63.659-63.659s63.659 28.501 63.659 63.659c0 0 0 0 0 0 0 35.158-28.501 63.659-63.659 63.659-35.158 0-63.659-28.501-63.659-63.659 0-0 0-0 0-0zM324.096 15.189c-44.544 0-80.725 36.181-80.725 80.725s36.181 80.725 80.725 80.725c44.544 0 80.725-36.181 80.725-80.725s-36.181-80.725-80.725-80.725zM324.096 142.507c-25.771 0-46.592-20.821-46.592-46.592s20.821-46.592 46.592-46.592 46.592 20.821 46.592 46.592-20.821 46.592-46.592 46.592zM749.056 95.915c-0-0.002-0-0.005-0-0.008 0-35.158 28.501-63.659 63.659-63.659 35.158 0 63.659 28.501 63.659 63.659 0 0.003-0 0.006-0 0.008 0 0.002 0 0.005 0 0.008 0 35.158-28.501 63.659-63.659 63.659-35.158 0-63.659-28.501-63.659-63.659 0-0.003 0-0.006 0-0.008zM812.715 15.189c-44.544 0-80.725 36.181-80.725 80.725s36.181 80.725 80.725 80.725 80.725-36.181 80.725-80.725-36.181-80.725-80.725-80.725zM812.715 142.507c-25.771 0-46.592-20.821-46.592-46.592s20.821-46.592 46.592-46.592 46.592 20.821 46.592 46.592-20.821 46.592-46.592 46.592zM710.315 478.037h-347.819c-9.387 0-17.067 7.68-17.067 17.067s7.68 17.067 17.067 17.067h347.819c9.387 0 17.067-7.68 17.067-17.067s-7.68-17.067-17.067-17.067zM710.315 379.904h-347.819c-9.387 0-17.067 7.68-17.067 17.067s7.68 17.067 17.067 17.067h347.819c9.387 0 17.067-7.68 17.067-17.067s-7.68-17.067-17.067-17.067z"  horiz-adv-x="1024" />

    
    <glyph glyph-name="saoyisao2" unicode="&#59008;" d="M921.6 819.2h-819.2c-12.8 0-25.6-10.24-25.6-25.6v-153.6c0-15.36 12.8-25.6 25.6-25.6s25.6 10.24 25.6 25.6v128h768v-128c0-15.36 12.8-25.6 25.6-25.6s25.6 10.24 25.6 25.6v153.6c0 15.36-12.8 25.6-25.6 25.6zM102.4-51.2h819.2c12.8 0 25.6 10.24 25.6 25.6v153.6c0 15.36-12.8 25.6-25.6 25.6s-25.6-10.24-25.6-25.6v-128h-768v128c0 15.36-12.8 25.6-25.6 25.6s-25.6-10.24-25.6-25.6v-153.6c0-15.36 12.8-25.6 25.6-25.6zM947.2 358.4h-870.4c-12.8 0-25.6 12.8-25.6 25.6 0 15.36 12.8 25.6 25.6 25.6h870.4c15.36 0 25.6-10.24 25.6-25.6 0-12.8-10.24-25.6-25.6-25.6z"  horiz-adv-x="1024" />

    
    <glyph glyph-name="shouye2" unicode="&#58906;" d="M994.56 484.053333l-469.333333 384h-1.92l-3.84 2.133334-3.626667 1.066666L512 872.533333h-3.84l-3.84-1.066666-3.84-1.92h-1.92l-469.333333-384a21.333333 21.333333 0 1 1 27.093333-33.066667L512 823.893333l455.68-372.906666a21.333333 21.333333 0 1 1 27.093333 33.066666zM853.333333 446.293333a21.333333 21.333333 0 0 1-21.333333-21.333333v-490.666667h-170.666667v298.666667a21.333333 21.333333 0 0 1-21.333333 21.333333H384a21.333333 21.333333 0 0 1-21.333333-21.333333v-298.666667H192v490.666667a21.333333 21.333333 0 0 1-42.666667 0v-512a21.333333 21.333333 0 0 1 21.333334-21.333333h213.333333a21.333333 21.333333 0 0 1 21.333333 21.333333v298.666667h213.333334v-298.666667a21.333333 21.333333 0 0 1 21.333333-21.333333h213.333333a21.333333 21.333333 0 0 1 21.333334 21.333333v512a21.333333 21.333333 0 0 1-21.333334 21.333333zM704 403.626667a21.333333 21.333333 0 0 1 0 42.666666h-128a21.333333 21.333333 0 0 1 0-42.666666zM490.666667 403.626667a21.333333 21.333333 0 0 1 0 42.666666h-85.333334a21.333333 21.333333 0 0 1 0-42.666666zM302.08 413.013333a35.84 35.84 0 0 1 2.56-3.2 21.333333 21.333333 0 0 1 7.04-4.48 20.053333 20.053333 0 0 1 16.213333 0 21.333333 21.333333 0 0 1 7.04 4.48l2.56 3.2a16.64 16.64 0 0 1 1.92 3.84 13.226667 13.226667 0 0 1 1.28 3.84 29.653333 29.653333 0 0 1 0 4.266667 22.4 22.4 0 0 1-6.186666 15.146667 21.333333 21.333333 0 0 1-23.253334 4.48 21.333333 21.333333 0 0 1-7.04-4.48 21.333333 21.333333 0 0 1-6.186666-15.146667 32.64 32.64 0 0 1 0-4.266667 13.866667 13.866667 0 0 1 1.28-3.84 15.786667 15.786667 0 0 1 2.773333-3.84z"  horiz-adv-x="1024" />

    
    <glyph glyph-name="my4" unicode="&#58945;" d="M882 382.7c0-93.9-35.2-183.4-99-252.1-0.2-0.2-0.3-0.4-0.5-0.5l-17.4-17c-5.6-5.4-14.3-5.6-20.1-0.5-22.4 19.9-53 32-82.6 43.7-40.4 16-78.6 31-91.3 65.3-0.5 1.2-0.7 2.5-0.9 3.8-1.7 19.3-1.6 34.1-1.5 49.9 0 4.4 0.1 9 0.1 13.8 0 5.4 3 10.4 7.7 13 5.5 4 22.8 32.9 25.8 61 0.8 7.1 6.4 12.6 13.5 13.2 1.9 0.2 9.5 5.5 12.3 28.8 1.4 12-4.4 16.2-4.4 16.2-5.9 3.6-8.5 10.8-6.3 17.3 2.6 7.7 11.1 35.1 13.6 66.6 2.5 30.6-1.6 55.5-11.8 71.8-9.1 14.6-23.1 23.1-42.9 25.8-4.6 0.6-8.5 3.3-10.8 7.3-6.6 11.6-27.1 18.5-54.8 18.6-44.9-0.8-77-13.6-95.4-37.8-12.2-16.1-18.9-37.8-20.1-64.6-1.1-25.3 2.8-55.2 11.5-88.8 1.6-6.3-1-12.9-6.6-16.3 0 0-5.9-4.2-4.4-16.2 2.8-23.3 10.4-28.6 12.3-28.8 7.1-0.6 12.8-6.1 13.5-13.2 3-28 20.9-57 26.6-60.9 4.8-2.6 7.7-7.6 7.7-13 0-4.7 0-9.3 0.1-13.6 0.1-15.8 0.3-30.7-1.5-50-0.1-1.3-0.4-2.6-0.9-3.8-12.7-34.3-51-49.3-91.6-65.3-11-4.3-22.3-8.8-33.2-13.6-7.5-3.3-16.2 0-19.5 7.5-3.3 7.5 0 16.2 7.5 19.5 11.5 5.2 23.2 9.7 34.5 14.2 34.8 13.7 65 25.5 74 46.4 1.4 16.8 1.3 29.9 1.2 45 0 2.2 0 4.5-0.1 6.9-13.6 13.6-27.6 42.5-32.7 68.1-4.8 2.5-9.3 6.2-13.1 11-7.4 9.4-12.2 23-14.2 40.3-2 16.4 3 29 9.6 37.2-18.1 75.2-12.8 132.4 15.8 170.1 24.2 31.8 64.1 48.5 118.6 49.5h0.3c35.7 0 62.5-9.6 76.5-27.3 25.3-5 44.6-17.9 57.4-38.4 30.4-48.9 12.6-125 4-154.4 6.5-8.2 11.2-20.6 9.2-36.7-2.1-17.3-6.9-30.8-14.2-40.3-3.8-4.8-8.2-8.5-13-11-3.3-17.3-9.8-32.5-13.9-40.7-4.4-9.1-10.7-20.1-18.1-27.5 0-2.4 0-4.7-0.1-7-0.1-15-0.2-28 1.2-44.8 9.1-20.8 39.1-32.7 73.7-46.4 26.5-10.5 56.1-22.1 80.6-40.4l7.8 7.5c58.6 63.2 90.9 145.4 90.9 231.6 0 46-9 90.6-26.8 132.6-17.2 40.6-41.7 77-73 108.3-31.3 31.3-67.7 55.9-108.3 73-42 17.8-86.6 26.8-132.6 26.8s-90.6-9-132.6-26.8c-40.6-17.2-77-41.7-108.3-73-31.3-31.3-55.8-67.7-73-108.3-17.8-42-26.8-86.6-26.8-132.6s9-90.6 26.8-132.6c17.2-40.6 41.7-77 73-108.3 31.3-31.3 67.7-55.8 108.3-73 42-17.8 86.6-26.8 132.6-26.8 57.9 0 115.1 14.8 165.4 42.8 7.1 4 16.2 1.4 20.1-5.7 4-7.1 1.4-16.2-5.7-20.1-54.7-30.4-116.8-46.5-179.8-46.5-50 0-98.5 9.8-144.1 29.1-44.1 18.6-83.7 45.3-117.7 79.3s-60.7 73.6-79.3 117.7c-19.3 45.6-29.1 94.1-29.1 144.1s9.8 98.5 29.1 144.1c18.6 44.1 45.3 83.7 79.3 117.7s73.6 60.7 117.7 79.3c45.6 19.3 94.1 29.1 144.1 29.1s98.5-9.8 144.1-29.1c44.1-18.6 83.7-45.3 117.7-79.3s60.7-73.6 79.3-117.7c19.2-45.6 29-94.1 29-144.1z"  horiz-adv-x="1024" />

    
    <glyph glyph-name="fenlei" unicode="&#59010;" d="M113.9 761.4H336v-84H113.9zM113.9 416.2H336v-84H113.9zM113.9 44.6h798.2v-84H113.9zM651 317.6c-20.4 0-40.8 2.7-61 8.1-60.4 16.2-111 55-142.3 109.2-31.3 54.2-39.6 117.3-23.4 177.8 16.2 60.4 55 111 109.2 142.3 54.2 31.3 117.3 39.6 177.8 23.4 60.4-16.2 111-55 142.3-109.2 31.3-54.2 39.6-117.3 23.4-177.8-16.2-60.4-55-111-109.2-142.3-36.2-20.9-76.2-31.5-116.8-31.5z m-0.7 384.7c-26 0-51.7-6.8-74.9-20.2-34.8-20.1-59.6-52.5-70-91.3-10.4-38.8-5.1-79.3 15-114 27.8-48.2 78.4-75.1 130.4-75.1 25.5 0 51.3 6.5 74.9 20.1 34.8 20.1 59.6 52.5 70 91.3 10.4 38.8 5.1 79.3-15 114-20.1 34.8-52.5 59.6-91.3 70-12.9 3.5-26 5.2-39.1 5.2zM706.471 367.186l72.744 42 125.7-217.713-72.743-42z"  horiz-adv-x="1024" />

    
    <glyph glyph-name="tupianjiazaishibai" unicode="&#60429;" d="M776 568m-72 0a72 72 0 1 1 144 0 72 72 0 1 1-144 0ZM999.904 779.392a32 32 0 0 1-21.952 10.912l-456.192 31.904a31.552 31.552 0 0 1-27.2-11.904l-92.192-114.848a32 32 0 0 1 0.672-40.896l146.144-169.952-147.456-194.656 36.48 173.376a32 32 0 0 1-11.136 31.424L235.616 650.496l79.616 125.696a32 32 0 0 1-29.28 49.024l-240.192-16.768a32 32 0 0 1-29.696-34.176l55.808-798.016a32.064 32.064 0 0 1 34.304-29.696l176.512 13.184c17.632 1.312 30.848 16.672 29.504 34.272s-16.576 31.04-34.304 29.536l-144.448-10.784-6.432 92.512 125.312 12.576a32 32 0 0 1 28.672 35.04 32.16 32.16 0 0 1-35.04 28.672l-123.392-12.416L82.144 746.816l145.152 10.144-60.96-96.224a32 32 0 0 1 6.848-41.952l198.4-161.344-58.752-279.296a30.912 30.912 0 0 1 0.736-14.752 31.68 31.68 0 0 1 1.408-11.04l51.52-154.56a31.968 31.968 0 0 1 27.456-21.76l523.104-47.552a32.064 32.064 0 0 1 34.848 29.632L1007.68 756.16a32.064 32.064 0 0 1-7.776 23.232z m-98.912-630.848l-412.576 39.648a31.52 31.52 0 0 1-34.912-28.768 32 32 0 0 1 28.8-34.912l414.24-39.808-6.272-89.536-469.728 42.72-39.584 118.72 234.816 310.016a31.936 31.936 0 0 1-1.248 40.192L468.896 676.16l65.088 81.056 407.584-28.48-40.576-580.192z"  horiz-adv-x="1024" />

    
    <glyph glyph-name="saoyisao3" unicode="&#58887;" d="M1101.749952-128h-882.725023a74.437298 74.437298 0 0 0-74.437298 74.437298V262.308658a9.743102 9.743102 0 0 0 19.486203 0v-315.87136a54.951094 54.951094 0 0 1 54.951095-54.951094h882.725023a54.951094 54.951094 0 0 1 54.951095 54.951094V252.955281a9.743102 9.743102 0 0 0 19.486203 0v-306.517983a74.437298 74.437298 0 0 0-74.437298-74.437298zM154.330733 508.029686a9.743102 9.743102 0 0 0-9.743102 9.743102V821.562702A74.437298 74.437298 0 0 0 219.024929 896h882.725023a74.437298 74.437298 0 0 0 74.437298-74.437298v-301.061846a9.743102 9.743102 0 0 0-19.486203 0V821.562702A54.951094 54.951094 0 0 1 1101.749952 876.513796h-882.725023a54.951094 54.951094 0 0 1-54.951095-54.951094v-303.789914a9.743102 9.743102 0 0 0-9.743101-9.743102zM1313.564986 369.872502H9.743102a9.743102 9.743102 0 0 0-9.743102 9.743102 9.743102 9.743102 0 0 0 9.743102 9.743102h1303.821884a9.743102 9.743102 0 0 0 9.743102-9.743102 9.743102 9.743102 0 0 0-9.743102-9.743102z"  horiz-adv-x="1323" />

    
    <glyph glyph-name="bao" unicode="&#58883;" d="M87.758747 611.981277l-3.151293-23.682447a69.901418 69.901418 0 0 0 6.493574 21.008623z m1027.799123 0l-3.342281-2.387343a72.957217 72.957217 0 0 0 6.589068-22.345535zM1202.552667-40.909423l-80.787704 605.716793-2.960306 22.441029a72.957217 72.957217 0 0 1-6.589068 22.345535 77.063448 77.063448 0 0 1-69.71043 44.404589h-171.888732a270.247284 270.247284 0 0 1-537.534262 0h-171.888732A76.872461 76.872461 0 0 1 91.101028 609.307453a69.901418 69.901418 0 0 1-6.493574-21.295104v-1.050432l-2.960306-22.441028-80.978692-605.430312a77.063448 77.063448 0 0 1 76.394992-87.090291h1049.189721a76.872461 76.872461 0 0 1 76.394992 87.090291zM601.610562 838.492428a213.333015 213.333015 0 0 0 211.041165-184.302918H390.569396A213.333015 213.333015 0 0 0 601.610562 838.492428zM141.235241 579.704393a19.767204 19.767204 0 0 0 19.098748 16.997886h881.789195a19.576217 19.576217 0 0 0 19.098748-16.997886l0.76395-5.347649L601.610562 246.431241 140.566785 574.452237z m999.819458-643.723301a19.576217 19.576217 0 0 0-14.80153-6.684562H76.967954a19.576217 19.576217 0 0 0-14.801529 6.684562A19.098748 19.098748 0 0 0 57.296244-48.453428l74.485117 558.542885 469.829201-334.22809 469.638213 334.22809L1145.924879-48.453428a19.098748 19.098748 0 0 0-4.87018-15.56548z"  horiz-adv-x="1203" />

    
    <glyph glyph-name="icon-" unicode="&#58907;" d="M512.078507 22.554452999999967c-39.304533 0-75.080533 39.218347-100.737707 110.43072-24.180053 67.1104-37.49632 156.077227-37.49632 250.512214s13.316267 183.401813 37.49632 250.513066c25.657173 71.21152 61.433173 110.429867 100.737707 110.429867s75.07968-39.218347 100.736853-110.429867c24.180053-67.111253 37.49632-156.07808 37.49632-250.513066s-13.316267-183.401813-37.49632-250.512214c-25.657173-71.212373-61.433173-110.43072-100.736853-110.43072z m0 696.285014c-13.02784 0-26.771627-8.188587-39.744854-23.68-13.492053-16.110933-26.254507-40.256853-36.908373-69.827414-23.202987-64.398507-35.981653-150.2848-35.981653-241.83552s12.778667-177.43616 35.981653-241.83552c10.653867-29.57056 23.41632-53.71648 36.908373-69.827413 12.973227-15.491413 26.717013-23.68 39.744854-23.68s26.771627 8.188587 39.744 23.68c13.4912 16.110933 26.254507 40.256853 36.908373 69.827413 23.202133 64.401067 35.9808 150.286507 35.9808 241.83552 0 91.549867-12.778667 177.435307-35.9808 241.83552-10.653867 29.57056-23.417173 53.71648-36.908373 69.827414-12.973227 15.491413-26.71616 23.68-39.744 23.68zM512.078507 740.1728c37.37088 0 71.72096-38.216533 96.722773-107.6096 24.01792-66.65984 37.244587-155.11296 37.244587-249.066667s-13.226667-182.406827-37.244587-249.065813c-25.001813-69.393067-59.351893-107.6096-96.722773-107.6096s-71.721813 38.216533-96.723627 107.6096c-24.01792 66.658987-37.244587 155.112107-37.244587 249.065813s13.226667 182.406827 37.244587 249.066667c25.001813 69.393067 59.351893 107.6096 96.723627 107.6096m0-696.285013c29.208747 0 58.610347 35.1104 80.666453 96.32768 23.36512 64.851627 36.233387 151.250773 36.233387 243.28192 0 92.031147-12.868267 178.430293-36.233387 243.28192-22.05696 61.218133-51.45856 96.32768-80.666453 96.32768-29.208747 0-58.6112-35.1104-80.667307-96.32768-23.365973-64.851627-36.233387-151.250773-36.233387-243.28192 0-92.031147 12.868267-178.430293 36.233387-243.28192 22.056107-61.218133 51.45856-96.32768 80.667307-96.32768m0 704.818346c-21.12256 0-41.089707-10.29888-59.346774-30.611626-17.31072-19.25888-32.587093-47.062187-45.405013-82.63936-24.34304-67.56352-37.748907-157.044053-37.748907-251.959467s13.405867-184.395947 37.748907-251.958613c12.81792-35.57632 28.094293-63.38048 45.405013-82.63936 18.257067-20.311893 38.224213-30.611627 59.346774-30.611627 21.121707 0 41.088853 10.29888 59.34592 30.611627 17.31072 19.25888 32.587093 47.06304 45.40416 82.63936 24.34304 67.562667 37.748907 157.0432 37.748906 251.958613s-13.405867 184.395947-37.748906 251.959467c-12.81792 35.57632-28.094293 63.38048-45.40416 82.63936-18.257067 20.312747-38.224213 30.611627-59.34592 30.611626z m0-696.285013c-25.024853 0-52.179627 33.90208-72.639147 90.686293-23.04 63.947093-35.729067 149.318827-35.729067 240.38912 0 91.071147 12.689067 176.44288 35.729067 240.38912 20.45952 56.785067 47.61344 90.687147 72.639147 90.687147 25.024 0 52.178773-33.90208 72.638293-90.687147 23.04-63.947947 35.728213-149.31968 35.728213-240.38912 0-91.068587-12.689067-176.441173-35.728213-240.38912-20.45952-56.785067-47.614293-90.686293-72.638293-90.686293zM289.508693 175.7056c-46.033067 0-77.865813 13.34016-92.055893 38.578347-19.262293 34.261333-2.609493 84.66688 46.889813 141.930666 46.650027 53.968213 117.673813 109.177173 199.988907 155.456 105.77664 59.47136 214.30528 94.976 290.31424 94.976 46.034773 0 77.866667-13.34016 92.056747-38.5792 19.262293-34.26048 2.610347-84.666027-46.889814-141.929813-46.649173-53.965653-117.67296-109.175467-199.98976-155.456-105.77664-59.470507-214.30528-94.976-290.31424-94.976z m445.137067 405.34272c-71.812267 0-175.650987-34.276693-277.76768-91.69152-79.802027-44.86656-148.4032-98.095787-193.168213-149.88288-20.555093-23.778987-35.347627-46.73792-42.779307-66.3936-7.145813-18.90048-7.548587-34.893653-1.163093-46.249813 11.861333-21.09696 44.47232-25.524907 69.741226-25.524907 71.811413 0 175.650133 34.276693 277.768534 91.690667C647.079253 337.86368000000004 715.680427 391.092907 760.44544 442.88c20.55424 23.778987 35.347627 46.73792 42.779307 66.3936 7.145813 18.90048 7.547733 34.893653 1.163093 46.249813-11.861333 21.096107-44.473173 25.524907-69.74208 25.524907zM734.64576 602.3816529999999c44.401493 0 74.948267-12.588373 88.33792-36.404053 18.315093-32.575147 1.837227-81.24672-46.398293-137.048747-46.335147-53.60384-116.95616-108.48256-198.852267-154.527573-105.16736-59.12832-212.914347-94.42816-288.223573-94.42816-44.40064 0-74.947413 12.588373-88.337067 36.4032-18.31424 32.576-1.836373 81.247573 46.399147 137.048747 46.335147 53.60384 116.95616 108.483413 198.852266 154.527573 105.165653 59.12832 212.91264 94.429013 288.221867 94.429013M289.508693 197.03893300000004c72.511147 0 177.13152 34.481493 279.8592 92.238507 80.221013 45.10208 149.226667 98.6624 194.304854 150.81216 42.55232 49.227093 58.748587 92.063573 44.433066 117.523627-12.872533 22.895787-47.053653 27.700907-73.460906 27.700906-72.511147 0-177.13152-34.481493-279.8592-92.238506-80.221013-45.10208-149.226667-98.661547-194.304854-150.811307-42.553173-49.227093-58.748587-92.063573-44.43392-117.52448 12.87424-22.894933 47.054507-27.700907 73.46176-27.700907m445.137067 413.876054c-76.708693 0-186.018987-35.70944-292.40576-95.52384-82.733227-46.5152-154.161493-102.053547-201.125547-156.38528-24.728747-28.608-41.478827-55.550293-49.782613-80.078507-8.75776-25.8688-7.950507-48.320853 2.40128-66.733227 14.990507-26.6624 48.109227-40.754347 95.775573-40.754346 76.708693 0 186.018987 35.70944 292.40576 95.522986 82.734933 46.516907 154.1632 102.055253 201.1264 156.386134 24.7296 28.608 41.478827 55.550293 49.782614 80.078506 8.75776 25.8688 7.949653 48.320853-2.40128 66.733227-14.990507 26.660693-48.109227 40.754347-95.776427 40.754347zM289.508693 205.572267c-15.336107 0-28.571307 1.64864-39.338666 4.900693-13.036373 3.93728-22.01344 10.144427-26.683734 18.449067-12.264107 21.81376 3.979093 62.09792 43.45088 107.761493 44.450133 51.423573 112.648533 104.32256 192.03072 148.9536 101.508267 57.070933 204.56448 91.14368 275.677014 91.14368 15.336107 0 28.571307-1.64864 39.33952-4.900693 13.036373-3.93728 22.01344-10.144427 26.683733-18.44992 12.264107-21.812907-3.979093-62.09792-43.45088-107.761494-44.450133-51.423573-112.648533-104.32256-192.031573-148.954453-101.508267-57.07008-204.565333-91.141973-275.677014-91.141973zM733.19168 183.08522700000003c-75.347627 0-181.820587 31.929173-284.817067 85.41184-83.80928 43.518293-156.629333 96.336213-205.046613 148.722346-51.375787 55.586987-69.695147 105.41056-51.582293 140.29312 14.18496 27.316907 48.49408 41.75616 99.21792 41.75616 75.346773 0 181.819733-31.929173 284.817066-85.410986 83.808427-43.518293 156.629333-96.336213 205.047467-148.7232 51.375787-55.586987 69.694293-105.409707 51.58144-140.292267-14.185813-27.31776-48.49408-41.757013-99.21792-41.757013zM290.963627 573.6686930000001c-28.276053 0-64.500907-4.849493-76.49792-27.953493-6.004053-11.562667-5.070507-27.5328 2.699946-46.185813 8.081067-19.397973 23.6288-41.851733 44.962134-64.9344 46.46144-50.269867 116.79488-101.18912 198.04416-143.37792 99.52256-51.67872 201.586347-82.53184 273.019733-82.53184 28.276053 0 64.500053 4.850347 76.49792 27.954346 6.004053 11.561813 5.070507 27.5328-2.699947 46.18496-8.080213 19.397973-23.627947 41.851733-44.962133 64.9344-46.459733 50.26816-116.793173 101.188267-198.04416 143.37792-99.523413 51.67872-201.586347 82.53184-273.019733 82.53184zM290.963627 595.002027c74.694827 0 180.433067-31.749973 282.850133-84.93056C657.196373 466.773333 729.60256 414.272853 777.693867 362.238293c50.064213-54.167893 68.14976-102.26432 50.92864-135.429973-13.403307-25.81248-46.403413-39.456427-95.430827-39.456427-74.694827 0-180.433067 31.749973-282.850987 84.931414-83.38176 43.296427-155.787947 95.79776-203.879253 147.831466-50.06336 54.167893-68.150613 102.26432-50.92864 135.430827 13.403307 25.81248 46.40256 39.456427 95.430827 39.456427m442.228053-390.583467c29.45792 0 67.29984 5.248853 80.28416 30.254933 13.46048 25.921707-4.148907 68.19584-48.31488 115.981654-46.78656 50.622293-117.53472 101.858133-199.21152 144.2688-100.101973 51.979093-202.899627 83.01056-274.985813 83.01056-29.458773 0-67.29984-5.248853-80.28416-30.25408-13.46048-25.92256 4.14976-68.19584 48.315733-115.982507 46.78656-50.622293 117.53472-101.858133 199.210667-144.2688 100.101973-51.97824 202.899627-83.01056 274.985813-83.01056M290.963627 603.5353600000001c-52.419413 0-88.037547-15.23456-103.00416-44.056747-9.733973-18.746027-9.795413-41.212587-0.18176-66.775893 9.114453-24.23808 26.750293-50.60864 52.416853-78.378667 48.743253-52.740267 121.978027-105.873067 206.21312-149.613226 103.57504-53.782187 210.783573-85.891413 286.783147-85.891414 52.419413 0 88.037547 15.235413 103.00416 44.0576 9.733973 18.745173 9.795413 41.211733 0.18176 66.77504-9.114453 24.23808-26.750293 50.60864-52.416854 78.37952-48.743253 52.73856-121.978027 105.872213-206.21312 149.612374-103.575893 53.782187-210.784427 85.891413-286.783146 85.891413z m442.228053-390.583467c-70.780587 0-172.109653 30.673067-271.053653 82.051414-80.823467 41.967787-150.742187 92.570453-196.8768 142.487893-40.96768 44.325547-58.54208 84.048213-47.00928 106.25792 4.73344 9.11616 14.439253 15.934293 28.847786 20.264107 11.897173 3.575467 26.655573 5.3888 43.863894 5.3888 70.78144 0 172.1088-30.673067 271.0528-82.05056 80.825173-41.96864 150.743893-92.57216 196.877653-142.487894 40.96768-44.325547 58.541227-84.048213 47.008427-106.257066-4.73344-9.11616-14.439253-15.934293-28.846934-20.26496-11.898027-3.57632-26.655573-5.389653-43.863893-5.389654zM512.077653 327.58869300000003c-30.828373 0-55.908693 25.08032-55.908693 55.908694s25.08032 55.908693 55.908693 55.908693 55.908693-25.08032 55.908694-55.908693-25.08032-55.908693-55.908694-55.908694z m0 86.216534c-16.712533 0-30.308693-13.59616-30.308693-30.308694 0-16.71168 13.59616-30.308693 30.308693-30.308693s30.308693 13.59616 30.308694 30.308693-13.59616 30.308693-30.308694 30.308694zM512.077653 435.13856c28.475733 0 51.642027-23.166293 51.642027-51.642027s-23.166293-51.642027-51.642027-51.642026-51.642027 23.166293-51.642026 51.642026 23.166293 51.642027 51.642026 51.642027m0-86.216533c19.065173 0 34.57536 15.510187 34.57536 34.57536 0 19.065173-15.510187 34.57536-34.57536 34.57536s-34.57536-15.510187-34.57536-34.57536c0-19.065173 15.510187-34.57536 34.57536-34.57536m0 94.749866c-33.181013 0-60.17536-26.994347-60.17536-60.17536s26.994347-60.17536 60.17536-60.17536 60.17536 26.994347 60.17536 60.17536-26.994347 60.17536-60.17536 60.17536z m0-86.216533c-14.359893 0-26.042027 11.682133-26.042026 26.042027s11.682133 26.042027 26.042026 26.042026 26.042027-11.682133 26.042027-26.042026-11.682987-26.042027-26.042027-26.042027z"  horiz-adv-x="1024" />

    
    <glyph glyph-name="classify2" unicode="&#59368;" d="M415.2 832h-319c-17.9 0-32.5-14.5-32.5-32.5v-319c0-17.9 14.5-32.5 32.5-32.5h319c17.9 0 32.5 14.5 32.5 32.5v319c-0.1 18-14.6 32.5-32.5 32.5z m-31.6-320h-256V768h256v-256zM927.2 832H608.5c-18 0-32.5-14.5-32.5-32.5v-318.7c0-17.9 14.5-32.5 32.5-32.5h318.7c17.9 0 32.5 14.5 32.5 32.5V799.5c-0.1 18-14.6 32.5-32.5 32.5z m-31.6-319.6H640V768h255.6v-255.6zM927.2 319.6H608.5c-17.9 0-32.5-14.5-32.5-32.5v-318.7c0-17.9 14.5-32.5 32.5-32.5h318.7c17.9 0 32.5 14.5 32.5 32.5V287.2c-0.1 17.9-14.6 32.4-32.5 32.4zM895.6 0H640V255.6h255.6V0zM415.2 320h-319c-17.9 0-32.5-14.5-32.5-32.5v-319c0-17.9 14.5-32.5 32.5-32.5h319c17.9 0 32.5 14.5 32.5 32.5v319c-0.1 18-14.6 32.5-32.5 32.5z m-31.6-320h-256V256h256v-256z"  horiz-adv-x="1024" />

    
    <glyph glyph-name="jiazai" unicode="&#58888;" d="M827.211075 674.323464m-54.351151 0a54.351151 54.351151 0 1 1 108.702302 0 54.351151 54.351151 0 1 1-108.702302 0ZM940.905298 380.600053m-67.086951 0a67.086952 67.086952 0 1 1 134.173903 0 67.086952 67.086952 0 1 1-134.173903 0ZM829.755035 85.404666m-78.974766 0a78.974766 78.974766 0 1 1 157.949532 0 78.974766 78.974766 0 1 1-157.949532 0ZM534.831643-32.64149m-91.48657 0a91.486571 91.486571 0 1 1 182.973141 0 91.486571 91.486571 0 1 1-182.973141 0ZM243.780191 90.044593m-101.902408 0a101.902408 101.902408 0 1 1 203.804816 0 101.902408 101.902408 0 1 1-203.804816 0ZM536.623615 788.129685m-107.854315 0a107.854315 107.854315 0 1 1 215.70863 0 107.854315 107.854315 0 1 1-215.70863 0ZM243.780191 671.779503m-107.854315 0a107.854315 107.854315 0 1 1 215.70863 0 107.854315 107.854315 0 1 1-215.70863 0ZM129.429978 383.992m-102.766395 0a102.766394 102.766394 0 1 1 205.532789 0 102.766394 102.766394 0 1 1-205.532789 0Z"  horiz-adv-x="1024" />

    
    <glyph glyph-name="jiazai1" unicode="&#58884;" d="M782.065-5.684c10.893-18.387 4.797-42.97-14.29-53.363-18.687-10.893-42.47-4.497-53.064 14.29-11.392 18.388-4.796 42.471 13.691 53.364 19.387 10.792 42.77 4.197 53.663-14.29z m-230.342-83.243c0-21.285-17.588-39.073-39.673-39.073-21.285 0-39.073 17.388-39.073 39.073v27.382c0 21.785 17.887 39.173 39.073 39.173 21.785 0 39.673-17.388 39.673-39.173v-27.382z m-241.135 44.17c-11.093-19.287-35.176-25.383-53.664-14.49-18.987 10.693-25.682 34.576-14.49 53.663l29.08 50.866c11.193 18.687 35.176 25.182 54.163 14.49 18.388-10.893 25.183-35.176 13.99-53.664l-29.08-50.865zM123.416 113.235c-18.987-10.593-43.27-4.197-53.664 14.49-11.092 18.388-4.796 42.77 13.99 53.664l78.147 45.269c18.688 10.392 42.971 4.496 53.664-14.49 10.592-18.388 4.097-42.771-14.49-53.664l-77.647-45.269zM40.272 344.177c-21.785 0-39.073 17.588-39.073 39.074 0 21.785 17.288 39.373 39.073 39.373H161.99c21.785 0 39.074-17.588 39.074-39.074 0-21.785-17.289-39.373-39.074-39.373H40.272z m43.57 241.535c-18.986 10.593-25.182 34.576-13.99 53.364 10.393 18.987 34.577 25.382 53.664 14.49l132.31-76.848c18.686-10.692 24.882-34.576 14.49-53.063-11.093-18.987-35.177-25.083-53.564-14.49l-132.91 76.547z m158.592 187.072l92.137-159.99c11.193-18.688 35.176-25.383 53.863-14.29 18.688 10.592 24.883 34.876 13.99 53.663l-92.536 159.69c-10.593 18.488-34.576 25.183-53.064 14.29-18.987-10.892-25.082-34.975-14.39-53.363z m230.643 82.644c0 21.285 17.887 39.373 39.073 39.373 21.785 0 39.673-17.688 39.673-39.373v-184.274c0-21.785-17.588-39.373-39.673-39.673-21.286 0-39.073 17.288-39.073 39.673V855.428z m241.135-43.57c11.192 18.987 34.876 25.182 53.663 14.49 18.987-10.593 25.683-34.577 14.49-53.664l-92.337-159.99c-10.393-18.688-34.976-25.283-53.663-14.49-18.687 10.892-24.883 35.176-14.29 53.963l92.137 159.69z m187.671-158.292l-160.19-92.337c-18.687-10.593-25.183-34.577-14.49-53.663 11.092-18.388 35.176-24.584 53.663-14.29l160.29 92.336c18.388 10.593 25.183 34.577 13.991 53.364-10.793 18.987-34.876 25.782-53.264 14.59z m82.344-230.942c21.985 0 39.373-17.588 39.073-39.373 0-21.486-16.988-39.074-39.073-39.074H799.753c-21.285 0-39.173 17.588-39.173 39.373 0 21.486 17.888 39.074 39.173 39.074h184.474z"  horiz-adv-x="1024" />

    


  </font>
</defs>
</svg>
