<?xml version="1.0" standalone="no"?>
<!DOCTYPE svg PUBLIC "-//W3C//DTD SVG 1.1//EN" "http://www.w3.org/Graphics/SVG/1.1/DTD/svg11.dtd" >
<!--
2013-9-30: Created.
-->
<svg>
<metadata>
Created by iconfont
</metadata>
<defs>

<font id="iconfont" horiz-adv-x="1024" >
  <font-face
    font-family="iconfont"
    font-weight="500"
    font-stretch="normal"
    units-per-em="1024"
    ascent="896"
    descent="-128"
  />
    <missing-glyph />
    
    <glyph glyph-name="daifukuan" unicode="&#58883;" d="M798.367635-1.077286 159.108253-1.077286c-52.906977 0-95.959515 43.063795-95.959515 95.959515L63.148737 673.118793c0 52.910047 43.052538 95.956446 95.959515 95.956446l642.200364 0c52.910047 0 95.958492-43.046399 95.958492-95.956446l0-94.002954c0-17.657148-14.300704-31.988552-31.988552-31.988552-17.683754 0-31.978319 14.331403-31.978319 31.988552l0 94.002954c0 17.619286-14.334473 31.988552-31.992645 31.988552L159.108253 705.107345c-17.629519 0-31.988552-14.369266-31.988552-31.988552l0-578.23554c0-17.654079 14.359033-31.978319 31.988552-31.978319l639.258359 0c17.658172 0 31.988552 14.32424 31.988552 31.978319l0 98.896404c0 17.693987 14.292518 31.988552 31.982412 31.988552s31.994692-14.294564 31.994692-31.988552l0-98.896404C894.332267 41.986509 851.303264-1.077286 798.367635-1.077286L798.367635-1.077286zM691.725826 385.169639c0 0.024559 0.00614 0.051165 0.00614 0.075725l-0.00614 0c-0.044002 8.142447-3.409656 16.223496-9.165754 21.989827-5.8001 5.792936-13.95278 9.165754-22.145369 9.165754-8.194636 0-16.349363-3.372817-22.141276-9.165754-5.760191-5.76633-9.121751-13.847379-9.165754-21.989827l-0.00614 0c0-0.024559 0-0.051165 0-0.075725 0-0.022513 0-0.048095 0-0.085958l0.00614 0c0.044002-8.142447 3.405563-16.213263 9.165754-21.978571 5.791913-5.801123 13.936407-9.16473 22.141276-9.16473 8.192589 0 16.34527 3.363607 22.13923 9.16473 5.756097 5.765307 9.127891 13.836123 9.171893 21.978571l0.00614 0C691.731966 385.122567 691.725826 385.147126 691.725826 385.169639zM903.146003 257.90514 572.486094 257.90514c-31.336706 0-56.831356 25.495674-56.831356 56.833403L515.654738 455.957869c0 31.337729 25.494651 56.83238 56.831356 56.83238l330.659909 0c31.336706 0 56.831356-25.494651 56.831356-56.83238L959.977359 314.738543C959.977359 283.400814 934.482709 257.90514 903.146003 257.90514zM577.652767 319.904193l320.324516 0L897.977283 450.791196 577.652767 450.791196 577.652767 319.904193z"  horiz-adv-x="1024" />

    
    <glyph glyph-name="shouhou" unicode="&#58956;" d="M934.399999 640.000001c-70.4 121.6-179.199999 204.799999-313.599999 236.799999-185.599999 51.2-383.999999-6.4-511.999999-153.6L19.200001 780.8l6.4-223.999999c0-19.2 25.6-32 38.4-19.2l191.999999 115.2L166.400001 697.600001c115.2 121.6 287.999999 166.4 447.999999 128 115.2-32 217.599999-108.8 275.199999-211.199999 64-108.8 76.8-230.399999 44.8-345.599999-32-115.2-108.8-217.599999-211.199999-275.199999-108.8-64-230.399999-76.8-345.599999-44.8-121.6 32-217.599999 108.8-281.599999 217.599999-6.4 12.8-25.6 19.2-38.4 12.8-12.8-6.4-19.2-25.6-12.8-38.4 70.4-121.6 179.199999-204.799999 313.599999-243.199999C403.2-121.599997 448-127.999997 492.8-127.999997c89.6 0 179.199999 25.6 255.999999 70.4 121.6 70.4 204.799999 179.199999 236.799999 313.599999C1023.999999 384.000001 1004.799999 518.400001 934.399999 640.000001zM665.6 179.200002 665.6 313.600002 339.2 313.600002l0-140.8 64 0L403.2 192.000002l204.799999 0 0-19.2L665.6 172.800002zM403.2 236.800002 403.2 268.800002l204.799999 0 0-32L403.2 236.800002zM377.6 595.200001C352 550.400001 326.400001 512.000001 288.000001 480.000001c6.4-19.2 19.2-38.4 25.6-64C320.000001 422.400001 332.800001 435.200001 339.2 441.600001l0-115.2 57.6 0L396.8 332.800002l300.799999 0L697.599999 371.200001 550.4 371.200001 550.4 396.800001l121.6 0L672 435.200001 550.4 435.200001 550.4 454.400001l121.6 0L672 492.800001 550.4 492.800001 550.4 512.000001l140.8 0L691.199999 550.400001l-128 0C556.8 569.600001 544 582.400001 537.6 601.600001L480 588.800001C486.4 576.000001 492.8 563.200001 492.8 550.400001L416 550.400001c6.4 6.4 12.8 19.2 12.8 25.6L377.6 595.200001zM492.8 371.200001 396.8 371.200001 396.8 396.800001l102.4 0L499.2 371.200001zM492.8 435.200001 396.8 435.200001 396.8 454.400001l102.4 0L499.2 435.200001zM492.8 512.000001l0-25.6L396.8 486.400001 396.8 512.000001 492.8 512.000001z"  horiz-adv-x="1024" />

    
    <glyph glyph-name="pingjia" unicode="&#58937;" d="M932.117336 49.543625 627.301026 49.543625 512.01228-63.332165 396.654972 49.543625 91.873454 49.543625c-50.251497 0-91.140767 40.028669-91.140767 89.221044L0.732687 742.143866c0 49.15963 40.889269 89.188298 91.140767 89.188298l840.243883 0c50.251497 0 91.106997-40.029692 91.106997-89.188298l0-603.379197C1023.224334 89.572294 982.368834 49.543625 932.117336 49.543625L932.117336 49.543625zM930.231383 702.743508c0 25.440415-20.841677 46.149063-46.414099 46.149063L140.271744 748.892571c-25.637913 0-46.479591-20.708648-46.479591-46.149063l0-527.620769c0-25.440415 20.841677-46.116317 46.479591-46.116317l294.526967 0 77.246315-76.748988 77.1798 76.748988 294.592458 0c25.571399 0 46.414099 20.675902 46.414099 46.116317L930.231383 702.743508 930.231383 702.743508zM704.679347 396.703323c-33.345456 0-60.539818 26.66429-60.539818 59.381435 0 32.6844 27.193339 59.315944 60.539818 59.315944 33.44574 0 60.606333-26.630521 60.606333-59.315944C765.28568 423.367613 738.12611 396.703323 704.679347 396.703323L704.679347 396.703323zM512.01228 396.703323c-33.379225 0-60.606333 26.66429-60.606333 59.381435 0 32.6844 27.227108 59.315944 60.606333 59.315944 33.379225 0 60.538795-26.630521 60.538795-59.315944C572.551074 423.367613 545.390481 396.703323 512.01228 396.703323L512.01228 396.703323zM319.27665 396.703323c-33.379225 0-60.572564 26.66429-60.572564 59.381435 0 32.6844 27.193339 59.315944 60.572564 59.315944 33.346479 0 60.539818-26.630521 60.539818-59.315944C379.817492 423.367613 352.62313 396.703323 319.27665 396.703323L319.27665 396.703323z"  horiz-adv-x="1039" />

    
    <glyph glyph-name="shouhou2" unicode="&#59022;" d="M481.456 672.863c82.338 0 192.124-25.7 192.124-247.72 0-18.18 15.036-33.217 33.22-33.217 18.177 0 33.216 15.034 33.216 33.217 0 259.433-140.207 313.451-257.863 313.451s-257.861-54.542-257.861-313.451c0-109.615 50.348-215.555 128.842-274.991l0-4.895c-174.469-25.176-285.654-96.325-285.654-184.611 0-18.18 15.036-33.217 33.218-33.217 18.18 0 33.217 15.034 33.217 33.217 0 46.504 95.801 105.417 256.285 123.07 16.608 1.574 29.369 16.085 29.369 32.691l0 50.874c0 11.187-5.945 21.326-15.036 27.793-68.004 44.404-113.981 136.886-113.981 230.063-0.528 222.728 108.559 247.725 190.903 247.725zM889.658 511.854l-41.782 10.663c-13.283 190.552-172.723 341.423-366.42 341.423-197.375 0-358.381-156.289-366.947-351.391l-24.474-20.977c-7.517-6.467-11.715-15.558-11.715-25.173l0-130.414c0-18.18 15.036-33.217 33.217-33.217s33.216 15.034 33.216 33.217l0 115.03 24.65 20.278c7.519 6.469 11.715 15.56 11.715 25.175 0 166.429 135.31 301.217 301.215 301.217s301.214-135.31 301.214-301.217c0-15.036 10.139-28.324 25.173-32.167l41.261-10.141 0-118.702c0-18.182 15.032-33.217 33.216-33.217 18.18 0 33.216 15.032 33.216 33.217l0 144.401c-1.574 15.558-11.718 28.846-26.752 31.993zM766.063 377.068c-5.945-17.656-61.01-62.586-245.624-62.586-18.178 0-33.216-15.036-33.216-33.217 0-18.182 15.036-33.217 33.216-33.217 280.937 0 308.208 97.899 310.83 117.652l-32.691 4.198-32.515 7.168zM610.994 145.955l0 21.854c0 18.178-15.034 33.217-33.218 33.217-18.177 0-33.217-15.036-33.217-33.217l0-50.871c0-16.611 12.763-30.944 29.372-32.691 17.132-2.098 33.741-4.196 49.298-6.993l0 66.782c-3.668 0.347-8.039 0.873-12.235 1.919zM933.222 7.767l-19.018 0 0 47.529c0 5.224-4.268 9.493-9.492 9.493l-85.566 0 0 57.054 19.018 0c10.451 0 19.018 8.571 19.018 19.018l0 57.057c0 10.447-8.569 19.017-19.018 19.017l-57.052 0c-10.449 0-19.022-8.571-19.022-19.017l0-57.057c0-10.448 8.573-19.018 19.022-19.018l19.015 0 0-57.054-85.564 0c-5.224 0-9.492-4.269-9.492-9.493l0-47.529-19.022 0c-10.447 0-19.018-8.569-19.018-19.017l0-57.055c0-10.449 8.571-19.02 19.018-19.02l57.059 0c10.447 0 19.018 8.571 19.018 19.02l0 57.055c0 10.447-8.571 19.017-19.018 19.017l-19.018 0 0 38.037 171.198 0 0-38.037-19.119 0c-10.447 0-19.02-8.569-19.02-19.017l0-57.055c0-10.449 8.573-19.02 19.02-19.02l57.054 0c10.449 0 19.018 8.571 19.018 19.02l0 57.055c-0.001 10.447-8.572 19.017-19.019 19.017zM781.075 198.02l57.054 0 0-57.055-57.054 0 0 57.055zM743.037-68.306l-57.055 0 0 57.055 57.055 0 0-57.055zM933.222-68.306l-57.054 0 0 57.055 57.054 0 0-57.055zM933.222-95.998l-57.054 0c-15.264 0-27.692 12.428-27.692 27.692l0 57.055c0 15.264 12.428 27.692 27.692 27.692l10.345 0 0 20.691-153.89 0 0-20.691 10.345 0c15.262 0 27.692-12.428 27.692-27.692l0-57.055c0-15.264-12.429-27.692-27.692-27.692l-57.055 0c-15.262 0-27.693 12.428-27.693 27.692l0 57.055c0 15.264 12.43 27.692 27.693 27.692l10.347 0 0 38.856c0 10.037 8.16 18.165 18.163 18.165l76.893 0 0 39.71-10.345 0c-15.262 0-27.69 12.429-27.69 27.693l0 57.055c0 15.261 12.428 27.69 27.69 27.69l57.055 0c15.262 0 27.693-12.429 27.693-27.69l0-57.055c0-15.264-12.43-27.693-27.693-27.693l-10.344 0 0-39.71 76.893 0c10.037 0 18.163-8.161 18.163-18.165l0-38.856 10.347 0c15.264 0 27.692-12.428 27.692-27.692l0-57.055c0.137-15.228-12.326-27.692-27.555-27.692zM870.532-76.978c1.673-1.06 3.549-1.674 5.635-1.674l57.054 0c2.084 0 3.961 0.618 5.633 1.674l-68.322 0zM680.348-76.978c1.672-1.06 3.549-1.674 5.635-1.674l57.055 0c2.084 0 3.963 0.618 5.633 1.674l-68.324 0zM867.493-5.616c-1.058-1.674-1.673-3.553-1.673-5.633l0-57.055c0-2.084 0.614-3.961 1.673-5.633l0 68.322zM751.709-5.616l0-68.322c1.06 1.673 1.672 3.549 1.672 5.633l0 57.055c0 2.08-0.612 3.958-1.672 5.633zM941.895-5.616l0-68.322c1.057 1.673 1.671 3.549 1.671 5.633l0 57.055c0 2.08-0.646 3.958-1.671 5.633zM677.242-5.616c-1.06-1.674-1.674-3.553-1.674-5.633l0-57.055c0-2.084 0.614-3.961 1.674-5.633l0 68.322zM884.839-59.632l39.71 0 0 39.71-39.71 0 0-39.71zM694.689-59.632l39.712 0 0 39.71-39.712 0 0-39.71zM870.532-2.578l68.322 0c-1.673 1.057-3.549 1.674-5.633 1.674l-27.69 0 0 56.2c0 0.411-0.411 0.82-0.82 0.82l-94.238 0 0 74.4 27.69 0c2.085 0 3.961 0.614 5.635 1.671l-68.355 0c1.673-1.057 3.551-1.671 5.632-1.671l27.692 0 0-74.4-94.238 0c-0.41 0-0.82-0.41-0.82-0.82l0-56.2-27.688 0c-2.085 0-3.963-0.618-5.635-1.674l68.322 0c-1.672 1.057-3.551 1.674-5.633 1.674l-27.69 0 0 55.381 188.578 0 0-55.381-27.794 0c-2.085 0-3.962-0.618-5.634-1.674zM846.803 203.653l0-68.324c1.058 1.674 1.672 3.551 1.672 5.635l0 57.055c0 2.084-0.614 3.961-1.672 5.633zM772.4 203.653c-1.056-1.671-1.672-3.549-1.672-5.633l0-57.055c0-2.084 0.618-3.961 1.672-5.635l0 68.324zM789.747 149.637l39.71 0 0 39.712-39.71 0 0-39.712zM775.443 206.692l68.319 0c-1.672 1.06-3.549 1.674-5.633 1.674l-57.054 0c-2.081-0.002-4.063-0.614-5.632-1.674z"  horiz-adv-x="1025" />

    
    <glyph glyph-name="shouhou1" unicode="&#59037;" d="M475.307 681.304c77.911 0 181.792-24.316 181.792-234.392 0-17.203 14.224-31.429 31.427-31.429 17.204 0 31.43 14.224 31.43 31.429 0 245.474-132.666 296.588-243.987 296.588s-243.985-51.445-243.985-296.588c0-103.716 47.639-203.955 121.913-260.197l0-4.631c-165.085-23.652-270.289-90.976-270.289-174.509 0-17.204 14.226-31.429 31.432-31.429 17.201 0 31.429 14.223 31.429 31.429 0 43.996 90.647 99.745 242.496 116.448 15.715 1.49 27.79 15.22 27.79 30.933l0 48.139c0 10.584-5.627 20.178-14.226 26.299-64.345 42.017-107.851 129.52-107.851 217.521-0.497 210.572 102.721 234.388 180.632 234.388zM861.549 528.958l-39.537 10.089c-12.569 180.302-163.426 323.054-346.704 323.054-186.754 0-339.098-147.881-347.203-332.485l-23.324-19.846c-7.11-6.12-11.081-14.721-11.081-23.82l0-123.563c0-17.204 14.226-31.43 31.429-31.43s31.43 14.226 31.43 31.43l0 108.839 23.324 19.19c7.114 6.12 11.082 14.721 11.082 23.821 0 157.474 128.031 285.009 285.007 285.009 156.979 0 285.011-128.031 285.011-285.009 0-14.226 9.594-26.797 23.821-30.437l39.036-9.594 0-112.318c0-17.204 14.224-31.427 31.427-31.427 17.206 0 31.43 14.221 31.43 31.427l0 136.633c-1.328 14.723-10.921 27.457-25.147 30.437zM744.6 401.426c-5.622-16.706-57.729-59.218-232.406-59.218-17.203 0-31.429-14.224-31.429-31.429 0-17.203 14.226-31.429 31.429-31.429 265.658 0 291.628 92.631 294.107 111.324l-30.935 3.968-30.766 6.783zM597.879 182.751l0 20.675c0 17.201-14.227 31.427-31.427 31.427-17.206 0-31.43-14.224-31.43-31.427l0-48.134c0-15.715 12.073-29.28 27.786-30.937 16.214-1.982 31.928-3.972 46.649-6.619l0 63.352c-3.471 0.172-7.609 0.667-11.577 1.663zM928.23 90.124l-20.678 0c-0.712 0-1.358-0.322-2.034-0.421-3.167 19.096-10.502 36.637-21.322 51.725 0.518 0.419 1.163 0.614 1.647 1.1l14.604 14.602c8.077 8.077 8.077 21.163 0 29.238-8.079 8.078-21.163 8.078-29.24 0l-14.634-14.604c-0.485-0.484-0.646-1.131-1.1-1.645-15.087 10.823-32.661 18.187-51.723 21.321 0.097 0.712 0.421 1.325 0.421 2.034l0 20.678c0 11.404-9.275 20.677-20.677 20.677-11.407 0-20.678-9.273-20.678-20.677l0-20.678c0-0.711 0.326-1.356 0.422-2.034-19.094-3.134-36.636-10.498-51.759-21.321-0.415 0.515-0.612 1.162-1.098 1.645l-14.604 14.604c-8.077 8.078-21.16 8.078-29.235 0-8.079-8.075-8.079-21.162 0-29.238l14.601-14.602c0.484-0.485 1.129-0.646 1.647-1.1-10.824-15.087-18.19-32.662-21.324-51.755-0.711 0.096-1.323 0.415-2.034 0.415l-20.677 0c-11.402 0-20.677-9.27-20.677-20.674 0-11.406 9.273-20.676 20.677-20.676l20.677 0c0.712 0 1.359 0.32 2.034 0.419 3.167-19.094 10.5-36.67 21.324-51.758-0.518-0.419-1.163-0.612-1.647-1.096l-14.601-14.604c-8.079-8.079-8.079-21.162 0-29.24 8.075-8.077 21.158-8.077 29.235 0l14.604 14.603c0.485 0.485 0.647 1.132 1.098 1.647 15.091-10.822 32.665-18.187 51.759-21.321-0.096-0.711-0.422-1.325-0.422-2.034l0-20.678c0-11.404 9.272-20.676 20.678-20.676 11.402 0 20.677 9.272 20.677 20.676l0 20.678c0 0.711-0.323 1.356-0.421 2.034 19.094 3.166 36.637 10.498 51.723 21.321 0.421-0.515 0.614-1.162 1.1-1.647l14.603-14.603c8.077-8.077 21.163-8.077 29.238 0 8.077 8.077 8.077 21.16 0 29.24l-14.604 14.604c-0.484 0.484-1.131 0.644-1.645 1.096 10.822 15.087 18.187 32.663 21.321 51.757 0.711-0.099 1.356-0.419 2.068-0.419l20.678 0c11.404 0 20.676 9.27 20.676 20.676 0 11.404-9.272 20.708-20.676 20.708zM783.494-13.259c-45.682 0-82.707 37.026-82.707 82.705 0 45.683 37.026 82.707 82.707 82.707 45.683 0 82.705-37.025 82.705-82.707 0-45.682-37.023-82.705-82.705-82.705z"  horiz-adv-x="1025" />

    
    <glyph glyph-name="weibiaoti527" unicode="&#58911;" d="M226.659765 30.524456c-8.516977 0-17.287735 0.243547-26.067702 0.725524l-62.833047 3.443425 52.838416 34.175357c41.237193 26.672476 70.176292 59.597353 83.613326 94.566796l-59.387575 0 0 1.843998c-53.871955 9.686616-94.878904 56.908104-94.878904 113.526613l0 353.631086c0 63.60155 51.743478 115.346051 115.346051 115.346051l546.362622 0c63.60155 0 115.345028-51.743478 115.345028-115.346051l0-353.631086c0-56.619532-41.006949-103.842043-94.878904-113.529683l0-1.817392-20.466124-0.022513-268.141016 0c-19.431561-36.83493-55.606459-69.51319-103.34267-93.02058C357.177354 44.317601 293.721113 30.524456 226.659765 30.524456zM255.75543 204.367807l69.686129 0-4.209882-24.001647c-4.976338-28.371164-17.291828-55.627948-36.605709-81.017198-6.988158-9.18622-14.830777-18.046005-23.49204-26.546609 47.882544 3.778046 92.623537 15.45704 130.951471 34.33397 44.202735 21.767769 76.001975 51.8059 89.539292 84.579327l5.226025 12.652158 294.802236 0.022513c41.031509 0 74.41278 33.382295 74.41278 74.414827l0 353.632109c0 41.032532-33.381271 74.413803-74.41278 74.413803l-546.362622 0c-41.031509 0-74.413803-33.381271-74.413803-74.413803l0-353.631086c0.001023-41.031509 33.382295-74.413803 74.413803-74.413803L255.75543 204.367807zM383.017882 457.288167c0-37.349653-30.269397-67.61905-67.618027-67.61905-37.341466 0-67.617004 30.269397-67.617004 67.61905 0 37.332257 30.275537 67.609841 67.617004 67.609841C352.748485 524.898007 383.017882 494.620423 383.017882 457.288167L383.017882 457.288167zM576.093249 457.288167c0-37.349653-30.27963-67.61905-67.627237-67.61905-37.340443 0-67.617004 30.269397-67.617004 67.61905 0 37.332257 30.277584 67.609841 67.617004 67.609841C545.813618 524.898007 576.093249 494.620423 576.093249 457.288167L576.093249 457.288167zM769.158383 457.288167c0-37.349653-30.277584-67.61905-67.618027-67.61905-37.34863 0-67.626213 30.269397-67.626213 67.61905 0 37.332257 30.277584 67.609841 67.626213 67.609841C738.880799 524.898007 769.158383 494.620423 769.158383 457.288167L769.158383 457.288167z"  horiz-adv-x="1024" />

    
    <glyph glyph-name="daifukuan1" unicode="&#58884;" d="M779.288 1.423H176.933c-62.28 0-112.944 50.668-112.944 112.943V653.634c0 62.28 50.663 112.944 112.944 112.944h602.355c62.276 0 112.944-50.664 112.944-112.944v-88.519c0-10.681-8.657-19.331-19.333-19.331-10.677 0-19.333 8.65-19.333 19.331v88.519c0 40.958-33.321 74.278-74.279 74.278H176.933c-40.958 0-74.277-33.321-74.277-74.278v-539.268c0-40.956 33.32-74.277 74.277-74.277h602.355c40.958 0 74.279 33.321 74.279 74.277V219.169c0 10.676 8.656 19.332 19.333 19.332 10.676 0 19.333-8.656 19.333-19.332v-104.803c0-62.276-50.669-112.943-112.945-112.943z m0 0M877.983 263.938H607.332c-44.886 0-81.401 36.515-81.401 81.4v91.57c0 44.884 36.515 81.4 81.4 81.4h270.652c44.884 0 81.4-36.516 81.4-81.4v-91.57c0-44.886-36.515-81.4-81.4-81.4zM607.332 479.642c-23.562 0-42.735-19.167-42.735-42.734v-91.57c0-23.568 19.172-42.736 42.735-42.736h270.65c23.566 0 42.74 19.167 42.74 42.735v91.571c0 23.567-19.173 42.734-42.74 42.734h-270.65z m0 0M657.188 354.493c-20.196 0-36.63 16.43-36.63 36.631 0 20.197 16.434 36.626 36.63 36.626 20.198 0 36.633-16.429 36.633-36.626 0-20.202-16.435-36.631-36.633-36.631z m0 38.665a2.035 2.035 0 0 1-2.033-2.034c0-1.126 0.913-2.04 2.033-2.04a2.036 2.036 0 1 1 0 4.073z m0 0"  horiz-adv-x="1024" />

    
    <glyph glyph-name="pingjia1" unicode="&#58915;" d="M490.816 197.867a21.355 21.355 0 0 0-4.907-2.987l-176.938-78.443c-50.134-19.797-89.11 18.774-70.55 69.803l0.918 2.176 84.138 170.09a21.333 21.333 0 0 0 3.435 5.014 21.564 21.564 0 0 0 3.264 4.16l422.379 422.4a64 64 0 0 0 90.496 0l75.434-75.435a64 64 0 0 0 0-90.517L496.107 201.749a21.333 21.333 0 0 0-5.291-3.882zM360.576 337.28l-82.432-166.656c-5.461-15.83-0.235-20.587 14.336-14.827l172.928 76.651L360.576 337.28z m135.53-75.179l316.8 316.779-105.6 105.6-316.8-316.8 105.6-105.6z m346.945 346.944l45.269 45.27a21.333 21.333 0 0 1 0 30.165l-75.435 75.413a21.333 21.333 0 0 1-30.165 0l-45.248-45.226 105.6-105.6zM896 441.728a21.333 21.333 0 0 0 42.667 0v-335.061a149.333 149.333 0 0 0-149.334-149.334H234.667A149.333 149.333 0 0 0 85.333 106.667V661.333A149.333 149.333 0 0 0 234.667 810.667h338.496a21.333 21.333 0 1 0 0-42.667H234.667A106.667 106.667 0 0 1 128 661.333v-554.666A106.667 106.667 0 0 1 234.667 0h554.666A106.667 106.667 0 0 1 896 106.667V441.728z"  horiz-adv-x="1024" />

    
    <glyph glyph-name="icon-test" unicode="&#58888;" d="M993.689 489.988l-71.531 48.648-69.942 159.645c-3.428 7.744-11.022 12.708-19.515 12.708H107.354c-11.767 0-21.25-9.531-21.25-21.246v-86.225c0-11.764 9.482-21.295 21.25-21.295 11.761 0 21.243 9.531 21.243 21.295v64.93h552.799v-382.48H132.123c-0.248 0-0.446-0.15-0.697-0.203h-3.87v61.709c0 11.76-9.532 21.242-21.247 21.242s-21.246-9.482-21.246-21.242v-82.951c0-11.719 9.531-21.249 21.246-21.249h4.567v-61.75c0-11.719 9.531-21.25 21.247-21.25h42.642c9.876-47.355 51.923-83.097 102.211-83.097 49.244 0 90.447 34.452 101.315 80.468h353.045c10.973-46.016 52.121-80.468 101.364-80.468 49.543 0 90.844 34.749 101.518 81.014h66.125c11.712 0 21.243 9.531 21.243 21.246V437.223a63.787 63.787 0 0 1-27.897 52.765zM723.938 668.447h94.919L885.622 516a21.677 21.677 0 0 1 7.547-9.085l76.597-52.121a21.271 21.271 0 0 0 9.28-17.571v-151.256H723.938v382.48z m6.304-468.26H379.435c-2.93 15.982-9.58 30.627-18.916 43.186H749.11c-9.337-12.559-16.039-27.203-18.868-43.186z m-576.873 43.186h39.96c-8.883-11.914-15.488-25.518-18.564-40.607h-21.396v40.607z m123.607-123.704c-34.202 0-61.902 27.798-61.902 61.902s27.701 61.802 61.902 61.802c34.104 0 61.802-27.698 61.802-61.802s-27.697-61.902-61.802-61.902z m555.725 0c-34.098 0-61.847 27.798-61.847 61.902s27.749 61.802 61.847 61.802c34.153 0 61.854-27.698 61.854-61.802 0.001-34.104-27.701-61.902-61.854-61.902z m102.458 81.014c-2.926 15.836-9.58 30.278-18.812 42.69h62.698v-42.69h-43.886zM172.532 434.045c0 11.761-9.482 21.194-21.25 21.194H66.249c-11.764 0-21.243-9.433-21.243-21.194 0-11.768 9.479-21.298 21.243-21.298h85.033c11.768 0 21.25 9.531 21.25 21.298zM215.074 519.079c0 11.711-9.483 21.295-21.299 21.295H23.659c-11.715 0-21.246-9.583-21.246-21.295 0-11.768 9.531-21.25 21.246-21.25h170.116c11.816 0.001 21.299 9.483 21.299 21.25z"  horiz-adv-x="1024" />

    
    <glyph glyph-name="pro-notes" unicode="&#58707;" d="M196.63 699.37c-174.173-174.174-174.173-456.566 0-630.74 174.174-174.173 456.566-174.173 630.74 0 174.173 174.174 174.173 456.566 0 630.74-174.174 174.173-456.566 174.173-630.74 0z m285.941-532.395v330h60v-330h-60z m5.697 375.696a6 6 0 0 0-6 6v47a6 6 0 0 0 6 6h48a6 6 0 0 0 6-6v-47a6 6 0 0 0-6-6h-48z"  horiz-adv-x="1024" />

    
    <glyph glyph-name="pro-fail" unicode="&#58708;" d="M196.363 68.605c-174.174 174.174-174.174 456.566 0 630.74 174.173 174.173 456.565 174.173 630.739 0 174.174-174.174 174.174-456.566 0-630.74-174.174-174.174-456.566-174.174-630.74 0zM554.73 383.696l166.877 166.878L679.181 593 512.304 426.123 345.426 593 303 550.574l166.877-166.878L303 216.82l42.426-42.426L512.304 341.27 679.18 174.393l42.426 42.426L554.73 383.696z"  horiz-adv-x="1024" />

    
    <glyph glyph-name="pro-success" unicode="&#58709;" d="M512-62C265.681-62 66 137.681 66 384S265.681 830 512 830s446-199.681 446-446-199.681-446-446-446z m-21.976 285.027l292.547 292.547L740.145 558 447.598 265.453 284.426 428.625 242 386.198 447.768 180.43l42.426 42.427-0.17 0.17z"  horiz-adv-x="1024" />

    
    <glyph glyph-name="pro-warn" unicode="&#58710;" d="M196.363 68.605c-174.174 174.174-174.174 456.566 0 630.74 174.173 174.173 456.565 174.173 630.739 0 174.174-174.174 174.174-456.566 0-630.74-174.174-174.174-456.566-174.174-630.74 0zM482.303 601v-330h60V601h-60zM488 225.304a6 6 0 0 1-6-6v-47a6 6 0 0 1 6-6h48a6 6 0 0 1 6 6v47a6 6 0 0 1-6 6h-48z"  horiz-adv-x="1024" />

    
    <glyph glyph-name="pro-pay-zfb" unicode="&#58711;" d="M853.189 149.093C816.7 164.88 666.52 229.76 587.999 267.226 527.791 194.307 464.744 150.55 369.706 150.55c-95.037 0-158.468 58.532-150.868 130.165 5.025 47.023 37.28 123.893 177.367 110.71 73.824-6.915 107.62-20.699 167.836-40.582 15.584 28.559 28.51 59.992 38.344 93.448H335.39v26.457h132.1v47.496H306.36v29.115h161.13v68.543s1.459 10.734 13.315 10.734h66.05v-79.277h171.783v-29.115H546.856v-47.496h140.13c-12.88-52.437-32.421-100.623-56.903-142.705 38.921-14.09 209.943-66.475 224.917-71.058V596.362C855 667.662 796.663 726 725.362 726H299.64C228.337 726 170 667.663 170 596.362v-425.723C170 99.337 228.337 41 299.64 41h425.722c63.964 0 117.486 46.953 127.825 108.093h0.002z m-494.004 46.799c-100.408 0-116.297 63.388-110.973 89.886 5.282 26.368 34.359 60.767 90.186 60.767 64.162 0.001 121.622-16.403 190.593-49.984-48.44-63.092-107.966-100.67-169.806-100.67z"  horiz-adv-x="1024" />

    
    <glyph glyph-name="pro-pack-deliver" unicode="&#58712;" d="M230 257.002a27.004 27.004 0 0 1 13.5-23.385 27.01 27.01 0 0 1 27.003 0A27.002 27.002 0 0 1 284 257.002C284 271.911 271.915 284 257.001 284 242.088 284 230 271.91 230 257.002M768.47 173.576c-30.23-0.93-58.572 14.712-73.951 40.817-15.38 26.101-15.369 58.526 0.041 84.618 15.409 26.087 43.76 41.7 73.995 40.742 44.777-1.42 80.34-38.222 80.317-83.129-0.02-44.902-35.618-81.675-80.402-83.048m-511.449 0c-30.23-0.944-58.581 14.683-73.973 40.78-15.395 26.097-15.395 58.522 0 84.618 15.392 26.094 43.742 41.716 73.973 40.78 44.78-1.4 80.361-38.187 80.361-83.089 0-44.906-35.582-81.693-80.36-83.089M768.47 414.511c-5.6 0-11.18-0.304-16.702-0.868V515.105c76.655 83.831 0 136.895 0 136.895H580.33v-43.305h51.596v-124.339c-29.293-13.945-80.81-121.522-80.81-121.522H414.488l36.844 72.64h5.903c4.189-0.004 8.21 1.659 11.18 4.626a15.87 15.87 0 0 1 4.641 11.191v31.215c-0.01 8.751-7.09 15.834-15.821 15.834h-302.91c-8.712-0.022-15.77-7.103-15.78-15.834v-31.215c0-8.71 7.11-15.816 15.78-15.816h32.427c-65.63-66.949-78.902-128.022-78.902-128.022-22.99-82.456 23.781-168.242 105.43-193.391 81.651-25.14 168.416 19.522 195.589 100.686h207.76c21.037-76.083 94.903-124.903 172.958-114.307C867.649 111.029 925.904 177.775 926 256.725c-0.032 87.17-70.556 157.806-157.53 157.786M201.496 620.661c0 4.978 7.1 8.996 15.829 8.996h176.354c8.75 0 15.783-4.018 15.783-8.996v-8.623c0-4.978-7.058-9.026-15.783-9.026H217.325c-8.75 0-15.829 4.048-15.829 9.026v8.623zM153.805 517h303.35c4.2 0 8.233 1.286 11.208 3.569 2.966 2.284 4.637 5.382 4.637 8.613V651.837c0 3.226-1.67 6.322-4.642 8.603-2.97 2.283-7.003 3.564-11.203 3.56h-303.35c-8.732-0.007-15.805-5.452-15.805-12.163v-122.674c0-6.72 7.098-12.163 15.805-12.163z"  horiz-adv-x="1024" />

    
    <glyph glyph-name="pro-pack-canel" unicode="&#58713;" d="M486.435 76.621H214.764a8.954 8.954 0 0 0-8.954 8.954V535.51a8.954 8.954 0 0 0 8.954 8.954h228.325a8.954 8.954 0 0 0 8.954-8.954v-47.008a8.954 8.954 0 0 1 8.953-8.954h105.209a8.954 8.954 0 0 1 8.953 8.954V535.51a8.954 8.954 0 0 0 8.954 8.954h228.325a8.954 8.954 0 0 0 8.954-8.954v-92.028C783.203 466.659 738.407 480 690.5 480c-139.728 0-253-113.496-253-253.5 0-56.075 18.171-107.898 48.935-149.879zM791.422 582.52H586.275c-4.926 0-8.92 4.009-8.92 8.954l-11.149 91.777c0 4.945 3.994 8.954 8.92 8.954h144.94c4.927 0 10.834-2.103 13.38-6.716l66.895-91.777c3.109-8.28-2.11-11.192-8.919-11.192zM691 266.305l-31.82 31.82c-11.13 11.13-29.175 11.13-40.305 0-11.13-11.13-11.13-29.175 0-40.305l31.82-31.82-31.82-31.82c-11.13-11.13-11.13-29.175 0-40.305 11.13-11.13 29.175-11.13 40.305 0l31.82 31.82 31.82-31.82c11.13-11.13 29.175-11.13 40.305 0 11.13 11.13 11.13 29.175 0 40.305L731.305 226l31.82 31.82c11.13 11.13 11.13 29.175 0 40.305-11.13 11.13-29.175 11.13-40.305 0L691 266.305zM443.09 582.52H237.15c-6.836 0-12.075 2.912-8.955 11.192l67.155 91.778c2.555 4.613 8.486 6.715 13.431 6.715h145.502a8.954 8.954 0 0 0 8.953-8.953l-11.192-91.778a8.954 8.954 0 0 0-8.954-8.954zM691 48c-98.307 0-178 79.917-178 178.5S592.693 405 691 405s178-79.917 178-178.5S789.307 48 691 48z"  horiz-adv-x="1024" />

    
    <glyph glyph-name="pro-pack-receipt" unicode="&#58714;" d="M362 660.5c-0.003-49.122 26.201-94.515 68.745-119.08 42.547-24.56 94.963-24.56 137.51 0 42.542 24.565 68.748 69.958 68.745 119.08 0.003 49.123-26.203 94.516-68.746 119.077-42.546 24.564-94.962 24.564-137.51 0C388.202 755.016 361.998 709.623 362 660.5M784.976 211.541s-15.43 45.343-21.78 64.842c-9.533 27.655-30.408 24.03-39.486 17.682-9.074-6.35-4.54-29.473-4.54-29.473l15.888-45.343-136.15 9.523-76.244 187.717c-20.395 57.638-74.956 96.159-136.15 96.127a146.676 146.676 0 0 1-107.728-36.368 146.376 146.376 0 0 1-49.292-102.382C226.769 357.998 195 118.136 195 118.136l252.783 3.172-88.042 178.65 41.296 8.615 66.26-144.642C491.351 112.695 521.303 100 542.18 100h231.906c27.948 5.017 48.354 29.217 48.56 57.585 2.99 24.935-13.213 48.142-37.669 53.956M900.737 388.94L739.532 458.428C718.94 470.068 692.856 463.944 679.594 444.35L603.307 329.897v-4.542L618.293 292.2l86.73 133.984a11.797 11.797 0 0 0 7.42 5.216 11.79 11.79 0 0 0 8.927-1.584l161.204-68.581a11.814 11.814 0 0 0 2.724-15.443L816.73 236.79l27.7-17.713 69.927 108.55c12.6 20.791 6.594 47.815-13.62 61.313"  horiz-adv-x="1024" />

    
    <glyph glyph-name="pro-pay-wx" unicode="&#58715;" d="M346.565 488.89c0-15.774 12.83-28.562 28.659-28.562 15.828 0 28.659 12.788 28.659 28.562 0 15.774-12.831 28.562-28.66 28.562-15.827 0-28.658-12.788-28.658-28.562z m133.13 0c0-15.774 12.828-28.562 28.651-28.562 15.824 0 28.651 12.788 28.651 28.562 0 15.774-12.827 28.562-28.65 28.562-15.824 0-28.652-12.788-28.652-28.562zM713.076 726H315.932C236.44 726 172 661.766 172 582.54v-397.191c0-79.235 64.439-143.46 143.932-143.46h397.144C792.569 41.88 857 106.113 857 185.34V582.539C857 661.767 792.57 726 713.076 726zM438.511 287.646c-27.725 0-54.065 4.847-77.867 13.576-11.397-7.883-55.723-37.806-55.723-37.806s4.559 49.498 4.559 65.297c-39.026 29.173-63.545 71.392-63.545 118.337 0 88.036 86.212 159.405 192.575 159.405 94.484 0 173.043-56.366 189.386-130.682-96.288-6.289-172.028-71.714-172.028-151.553 0-12.224 1.829-24.06 5.172-35.439-7.395-0.725-14.91-1.135-22.53-1.135z m313.043-71.73c0-8.963-0.507-40.52-0.507-40.52s-28.91 13.745-41.048 19.833c-20.548-7.19-43.174-11.177-66.936-11.177-94.58 0-171.254 63.042-171.254 140.812 0 77.761 76.674 140.803 171.254 140.803 94.573 0 171.246-63.041 171.246-140.803 0.008-43.91-24.454-83.14-62.755-108.949zM559.793 370.672c0-12.839 10.443-23.247 23.326-23.247 12.884 0 23.327 10.408 23.327 23.247 0 12.84-10.443 23.247-23.327 23.247-12.883 0-23.326-10.408-23.326-23.247z m114.62 0c0-12.839 10.444-23.247 23.327-23.247 12.883 0 23.327 10.408 23.327 23.247 0 12.84-10.444 23.247-23.327 23.247-12.883 0-23.327-10.408-23.327-23.247z"  horiz-adv-x="1024" />

    
    <glyph glyph-name="pro-poss-show" unicode="&#58716;" d="M514.5 694C313.818 694 142.437 564.624 73 382c69.436-182.624 240.818-312 441.5-312 200.883 0 372.064 129.376 441.5 312-69.437 182.624-240.617 312-441.5 312z m1-519C404.825 175 315 268.184 315 383s89.824 208 200.5 208S716 497.816 716 383s-89.825-208-200.5-208z m-0.5 332c-66.2 0-120-55.818-120-124.5S448.8 258 515 258s120 55.818 120 124.5S581.2 507 515 507z"  horiz-adv-x="1024" />

    
    <glyph glyph-name="pro-mailing" unicode="&#58717;" d="M159 261.962h57.2c43.082 0 72.8 37.147 72.8 77.986 0 23.318-9.685 45.427-26.026 60.114C279.315 414.75 289 436.86 289 460.176c0 40.84-29.718 77.987-72.8 77.987H159V609l169-76.296v-163.511c0-14.357 11.64-25.996 26-25.996s26 11.639 26 25.996V509.217l117-52.823V40L159 182.975V261.962zM745.676 693L850 648.844 522.687 502 434 542.078 745.676 693z m-63.689 26.332L371.964 569 196 648.618 522.39 787 682 719.332h-0.013zM548 40.013v416.44L886 608v-424.983L548 40v0.013zM101.8 434C90.308 434 81 445.635 81 460c0 14.352 9.308 26 20.8 26h114.4c11.492 0 20.8-11.648 20.8-26 0-14.365-9.308-26-20.8-26H101.8z m0-120C90.308 314 81 325.635 81 340c0 14.352 9.308 26 20.8 26h114.4c11.492 0 20.8-11.648 20.8-26 0-14.365-9.308-26-20.8-26H101.8z"  horiz-adv-x="1024" />

    
    <glyph glyph-name="pro-pack-wait" unicode="&#58718;" d="M486.435 76.621H214.764a8.954 8.954 0 0 0-8.954 8.954V535.51a8.954 8.954 0 0 0 8.954 8.954h228.325a8.954 8.954 0 0 0 8.954-8.954v-47.008a8.954 8.954 0 0 1 8.953-8.954h105.209a8.954 8.954 0 0 1 8.953 8.954V535.51a8.954 8.954 0 0 0 8.954 8.954h228.325a8.954 8.954 0 0 0 8.954-8.954v-92.028C783.203 466.659 738.407 480 690.5 480c-139.728 0-253-113.496-253-253.5 0-56.075 18.171-107.898 48.935-149.879zM791.422 582.52H586.275c-4.926 0-8.92 4.009-8.92 8.954l-11.149 91.777c0 4.945 3.994 8.954 8.92 8.954h144.94c4.927 0 10.834-2.103 13.38-6.716l66.895-91.777c3.109-8.28-2.11-11.192-8.919-11.192z m-348.332 0H237.15c-6.836 0-12.075 2.912-8.955 11.192l67.155 91.778c2.555 4.613 8.486 6.715 13.431 6.715h145.502a8.954 8.954 0 0 0 8.953-8.953l-11.192-91.778a8.954 8.954 0 0 0-8.954-8.954zM513 226.5a178.5 178 90 1 1 356 0 178.5 178 90 1 1-356 0ZM715 247.03l54.754-17.82c14.047-4.572 22.083-19.316 18.312-33.6-3.508-13.283-17.12-21.209-30.403-17.701-0.453 0.12-0.903 0.252-1.349 0.397l-73.545 23.936C668.792 204.07 658 216.025 658 230.5v84c0 15.74 12.76 28.5 28.5 28.5s28.5-12.76 28.5-28.5v-67.47z"  horiz-adv-x="1024" />

    
    <glyph glyph-name="pro-arrow-xxx" unicode="&#58719;" d="M717.508 761.182v-753.72c0-7.732-6.268-14-14-14a14 14 0 0 0-9.9 4.1L316.904 374.275c-5.465 5.466-5.467 14.327-0.004 19.795l376.706 377.008c5.465 5.47 14.33 5.473 19.799 0.008a14 14 0 0 0 4.104-9.904z"  horiz-adv-x="1024" />

    
    <glyph glyph-name="pro-pack-done" unicode="&#58720;" d="M569.142 665.61c0-74.028-60.01-134.037-134.038-134.037-74.024 0-134.034 60.01-134.034 134.038 0 74.024 60.01 134.033 134.034 134.033 74.028 0 134.038-60.008 134.038-134.033zM395.155 378.48L548.947 443.3c9.407 3.967 25.08 5.253 35.005 2.875l3.518-0.842c-8.109 32-35.303 37.768-99.97 37.768H343.756c-52.592 0-80.931 1.497-98.059-34.376-0.248-0.514-15.416-40.241-31.176-89.326-7.882-24.573-15.903-51.467-22.285-77.422-6.347-26.131-11.278-50.672-12.27-74.115l0.02 0.551-0.012-0.25c-0.028-0.81-0.066-1.83-0.066-3.119-0.027-12.97 3.493-25.157 8.451-34.975 9.54-18.542 22.522-30.21 35.905-40.29 23.631-17.251 51.263-29.719 80.958-41.126 88.373-33.386 195.817-53.065 197.269-53.443 3.101-0.577 6.19-0.855 9.239-0.855 23.637 0 44.676 16.82 49.164 40.904 5.072 27.189-12.858 53.336-40.05 58.409 0 0-0.85 0.16-2.78 0.538-14.377 2.766-82.82 16.658-145.013 36.806-30.953 9.937-60.5 21.795-78.731 32.5-6.014 3.436-10.682 6.805-13.593 9.212 1.308 11.516 4.408 27.896 8.762 45.332 6.612 26.915 15.844 57.048 24.558 83.472-8.218-49.405-18.28-116.114-19.305-122.884a98.871 98.871 0 0 1 6.082-3.763c16.606-9.746 44.335-21.163 76.228-31.397 0.885-0.287 1.772-0.572 2.658-0.855-1.016 2.56-1.585 5.263-1.585 7.967V352.823c0 10.204 7.626 21.694 17.03 25.656z m405.188-193.515c-0.008 0-0.566 0.018-1.998 0.098l-0.7 0.037c-0.273-0.128-0.542-0.273-0.818-0.39l-153.783-64.827c-9.405-3.967-25.079-5.248-35.004-2.873l-10.35 2.48c0.07-0.284 0.139-0.577 0.207-0.857 8.435-3.127 17.043-5.853 25.855-8.447 38.496-10.843 80.515-16.796 113.826-20.478 33.224-3.638 57.393-4.755 58.113-4.79 0.787-0.041 1.575-0.059 2.358-0.059 26.59 0 48.745 20.919 49.987 47.746 1.291 27.64-20.064 51.07-47.693 52.36z m-14.424 183.4l-138.664-58.448c-6.566-2.767-11.893-10.793-11.893-17.916v-144.176c0-7.13 5.327-10.662 11.893-7.899L785.92 198.38c6.568 2.767 11.894 10.785 11.894 17.917v144.18c0 7.124-5.326 10.655-11.894 7.889z m-187.801-62.258l-193.075 46.271c-6.952 1.67-12.59-2.78-12.59-9.927v-145.085c0-7.146 5.637-14.29 12.59-15.96l193.075-46.273c6.953-1.665 12.588 2.78 12.588 9.927V290.145c0 7.15-5.635 14.296-12.588 15.96z m-72.533-67.748c-0.379-1.295 0.3-2.782 1.61-3.165 1.478-0.432 2.204 0.286 2.686 1.593l0.81 2.772-1.899 0.555c-1.466 0.347-2.705-0.042-3.207-1.755z m-51.963 31.533c-0.221-0.414-0.444-0.828-0.67-1.237-0.224-0.408-0.435-0.785-0.632-1.128l-2.367-3.946 3.981-1.164 0.126 4.575c0.042 0.917 0.097 1.834 0.166 2.75l0.098 1.31-0.073 0.022c-0.194-0.37-0.406-0.764-0.629-1.182z m-64.062 18.736c-0.221-0.414-0.444-0.827-0.67-1.236-0.224-0.409-0.435-0.785-0.632-1.128l-2.367-3.946 3.981-1.164 0.126 4.574c0.042 0.918 0.097 1.834 0.166 2.75l0.098 1.311-0.073 0.021c-0.193-0.369-0.406-0.764-0.629-1.182z m175.658-58.599l11.331-3.314 0.951 3.252-11.331 3.314-0.95-3.252z m4.51 1.505l3.832-1.121-0.57-1.952-3.833 1.122 0.57 1.951z m181.365 156.102l-190.925 45.75c-7.076 1.7-18.248 0.782-24.951-2.044L418.5 373.71c-6.707-2.827-6.406-6.494 0.67-8.188l190.935-45.751c7.076-1.699 18.247-0.781 24.952 2.044l136.707 57.63c6.705 2.828 6.406 6.496-0.672 8.19zM525.585 238.358c-0.38-1.295 0.299-2.781 1.61-3.165 1.478-0.432 2.204 0.286 2.686 1.593l0.81 2.773-1.899 0.554c-1.467 0.347-2.706-0.042-3.207-1.755z m-116.025 50.27c-0.222-0.415-0.444-0.828-0.67-1.237-0.225-0.409-0.436-0.785-0.633-1.128l-2.366-3.946 3.98-1.164 0.127 4.574c0.041 0.918 0.097 1.834 0.166 2.75l0.097 1.311-0.073 0.022c-0.192-0.37-0.405-0.765-0.628-1.182z m64.062-18.737c-0.222-0.414-0.444-0.828-0.67-1.236-0.225-0.409-0.436-0.786-0.633-1.129l-2.366-3.946 3.98-1.164 0.127 4.575c0.041 0.917 0.097 1.834 0.166 2.75l0.097 1.31-0.073 0.022c-0.193-0.37-0.406-0.764-0.628-1.182z"  horiz-adv-x="1024" />

    
    <glyph glyph-name="pro-pack-deliver1" unicode="&#58721;" d="M177.158 168.682a29.074 29.074 0 0 0-20.614 8.488A29.053 29.053 0 0 0 148 197.752V343.749c0 27.74 22.36 59.005 22.36 59.005L235.759 519c13.338 16.062 22.396 29.214 43.897 29.214H382.08v87.573c0 16.062 13.085 29.214 29.229 29.214h411.462c16.07 0 29.229-13.152 29.229-29.214v-437.891c-0.02-16.126-13.094-29.198-29.229-29.214H764.28c-7.19 50.307-50.188 89.224-102.608 89.224-52.416 0-95.45-38.917-102.604-89.224H411.45c-7.19 50.307-50.187 89.224-102.604 89.224-52.416 0-95.452-38.917-102.605-89.224h-29.083z m31.096 199.971c-5.427-8.05-11.324-17.501-11.362-24.794h155.852V489.857H281.13c-4.712 0-11.254-6.933-11.254-6.933l-61.623-114.27zM661.71 227.038c40.444 0 73.198-32.665 73.198-73.02C734.908 113.7 702.12 81 661.71 81s-73.196 32.7-73.196 73.018c0 40.321 32.787 73.02 73.196 73.02z m-352.826 0c40.375 0.018 73.135-32.66 73.196-73.02 0-40.318-32.787-73.018-73.196-73.018-40.41 0-73.198 32.7-73.198 73.018 0 40.321 32.788 73.02 73.198 73.02z"  horiz-adv-x="1024" />

    
    <glyph glyph-name="sf-logo" unicode="&#58722;" d="M684.558 331.736c-25.534 0-44.69 19.153-44.69 43.597 0 24.454 19.156 44.662 44.69 44.662 24.44 0 43.615-20.208 43.615-44.662 0-24.444-20.22-43.597-43.615-43.597M511.133 710.27c81.927 0 158.5-22.345 223.421-60.613l77.668 60.613C726.035 768.736 622.824 802.776 511.133 802.776 400.478 802.776 296.211 768.736 211.1 710.27l76.603-60.613c65.965 38.268 142.568 60.613 223.43 60.613M287.702 116.961L211.099 57.424c85.111-58.475 189.378-92.516 300.033-92.516 111.69 0 214.903 34.04 301.089 92.516L734.553 116.961c-64.92-38.278-141.494-59.54-223.42-59.54-80.863 0-157.466 21.262-223.431 59.54M184.512 383.847c0 80.8 22.34 157.355 60.651 223.289l-60.651 76.544c-57.458-85.047-91.51-188.213-91.51-299.833 0-111.63 34.052-214.786 91.51-300.907l60.651 77.618c-38.311 65.914-60.651 141.424-60.651 223.289M778.178 160.557l59.577-77.618c58.522 86.121 92.565 189.277 92.565 300.907 0 111.62-34.043 214.786-92.565 299.833l-59.577-76.544c38.322-65.934 59.577-142.488 59.577-223.289 0-81.865-21.255-157.375-59.577-223.289M376.017 182.89c-42.57 0-79.807 11.694-112.795 36.158h-1.054v81.865l5.323-5.31c8.508-11.705 44.67-47.854 103.202-47.854 44.68 0 48.93 32.976 48.93 47.853 0 28.701-29.794 44.662-62.771 60.594l-2.11 1.064c-43.645 21.262-92.574 44.642-92.574 107.393 0 57.42 47.874 99.934 113.85 103.117h8.498c57.457 0 86.185-21.242 91.51-25.509l1.054-1.064v-70.17l-5.314 4.267c-20.23 18.06-53.198 28.7-84.046 28.7-13.852 0-26.6-2.158-35.117-6.394-13.813-6.365-20.211-17.006-20.211-32.947 0-19.144 23.395-30.839 52.124-45.736l5.313-2.138c37.247-20.178 101.073-52.08 101.073-124.379 0-30.838-12.747-62.73-32.968-80.81-20.21-18.07-49.994-28.7-81.917-28.7M602.626 180.763h-71.279V543.327l2.13 1.065c2.12 1.083 61.696 24.473 124.477 24.473 68.085 0 102.147-25.538 102.147-25.538l1.055-1.073v-70.17l-4.259 3.212c-6.388 4.236-36.172 25.508-91.5 26.542h-3.204c-28.718 0-48.93-6.374-58.492-9.547l-1.075-1.054V180.763z"  horiz-adv-x="1024" />

    
    <glyph glyph-name="pro-photograph" unicode="&#58723;" d="M512 611c114.214 0 205-90.786 205-205s-90.786-205-205-205-205 90.786-205 205 90.786 205 205 205z m0-327c66.545 0 122 55.455 122 122s-55.455 122-122 122-122-55.455-122-122 55.455-122 122-122z m286 356h-78l-18.2 54.6c-5.2 13-20.8 23.4-33.8 23.4H356c-15.6 0-28.6-10.4-33.8-23.4L304 640h-78c-44.2 0-78-33.8-78-78v-364c0-44.2 36.4-78 78-78h572c44.2 0 78 33.8 78 78V562c0 44.2-33.8 78-78 78z"  horiz-adv-x="1024" />

    
    <glyph glyph-name="pro-home" unicode="&#58724;" d="M610 78h101.862C740.657 78 764 101.35 764 130.155V437h119L512 768 141 437h119v-306.845C260 101.351 283.343 78 312.138 78H415V277c0 16.569 13.431 30 30 30h135c16.569 0 30-13.431 30-30v-199zM475 247v-169c0-33.137-26.863-60-60-60H312.138C250.2 18 200 68.218 200 130.155V377h-59c-55.117 0-81.072 68.078-39.944 104.771l371 331c22.759 20.305 57.13 20.305 79.888 0l371-331C964.072 445.078 938.117 377 883 377h-59v-246.845C824 68.218 773.799 18 711.862 18H610c-33.137 0-60 26.863-60 60V247h-75z"  horiz-adv-x="1024" />

    
    <glyph glyph-name="pro-link-bluetooth" unicode="&#58725;" d="M537.175 377.54L514 354.775v-197.329l125.165 120.08-101.99 100.012z m-86.85-81.836L282.214 119.24l-42.426 42.426 210.539 217.568v80.104l-210.54 217.568 42.427 42.427 168.113-176.466V822.877l274.826-260.7-145.476-142.892 145.476-142.892-274.826-260.7V295.704z m66.33 382.871L514 483.795l23.175-22.764 101.99 100.013-122.51 117.531z"  horiz-adv-x="1024" />

    
    <glyph glyph-name="pro-user" unicode="&#58726;" d="M513.5 417C400.005 417 308 509.005 308 622.5S400.005 828 513.5 828 719 735.995 719 622.5 626.995 417 513.5 417z m0 60c80.357 0 145.5 65.143 145.5 145.5S593.857 768 513.5 768 368 702.857 368 622.5 433.143 477 513.5 477zM799 230c0 53.8-30.889 102.823-79.42 126.044-69.861 33.426-138.972 50.024-207.58 50.024-67.49 0-134.657-16.06-201.776-48.386C261.18 334.062 230 284.436 230 230v-67h569v67zM284.19 411.74c75.059 36.15 151.086 54.328 227.81 54.328 77.842 0 155.75-18.71 233.476-55.9C814.847 376.974 859 306.902 859 230v-91c0-19.882-16.118-36-36-36H206c-19.882 0-36 16.118-36 36v91c0 77.483 44.381 148.118 114.19 181.74z"  horiz-adv-x="1024" />

    
    <glyph glyph-name="pro-finish" unicode="&#58727;" d="M847.329 640.347l42.426-42.426-475.176-475.176-42.426 42.427zM74 381.574L116.426 424l299.107-299.106-42.427-42.427z"  horiz-adv-x="1024" />

    
    <glyph glyph-name="pro-reduce" unicode="&#58728;" d="M514-65C267.681-65 68 134.681 68 381S267.681 827 514 827s446-199.681 446-446-199.681-446-446-446z m0 60c213.182 0 386 172.818 386 386S727.182 767 514 767 128 594.182 128 381s172.818-386 386-386zM279 351.5v60h469v-60z"  horiz-adv-x="1024" />

    
    <glyph glyph-name="pro-top" unicode="&#58729;" d="M543.57 477.31L775.662 269.55c12.345-11.05 31.311-10.001 42.362 2.344 11.05 12.345 10.001 31.31-2.344 42.362L532.473 567.77a29.89 29.89 0 0 1-20.22 7.647 29.89 29.89 0 0 1-20.22-7.647l-283.21-253.513c-12.344-11.051-13.394-30.017-2.343-42.362 11.05-12.345 30.017-13.394 42.362-2.344l234.727 210.117V-5.07c0-16.569 13.432-30 30-30 16.569 0 30 13.431 30 30V477.31zM147.5 593.5h729a7.5 7.5 0 0 1 7.5 7.5v45a7.5 7.5 0 0 1-7.5 7.5h-729a7.5 7.5 0 0 1-7.5-7.5v-45a7.5 7.5 0 0 1 7.5-7.5z"  horiz-adv-x="1024" />

    
    <glyph glyph-name="pro-finish1" unicode="&#58730;" d="M514-65C267.681-65 68 134.681 68 381S267.681 827 514 827s446-199.681 446-446-199.681-446-446-446z m0 60c213.182 0 386 172.818 386 386S727.182 767 514 767 128 594.182 128 381s172.818-386 386-386zM740.145 558l42.427-42.426-316.077-316.077-42.426 42.426zM242 386.198l42.426 42.427 205.768-205.769-42.426-42.426z"  horiz-adv-x="1024" />

    
    <glyph glyph-name="pro-stock" unicode="&#58731;" d="M511.79 722v-289.48H801V722H511.79z m241.152-241.117H560.173V673.829h192.769v-192.946zM511.789 95H801V384.48H511.79V95z m48.384 241.309h192.768v-192.946H560.173V336.31zM174 95h289.21V384.48H174V95z m48.384 241.309h192.768v-192.946H222.384V336.31z"  horiz-adv-x="1024" />

    
    <glyph glyph-name="pro-coupon" unicode="&#58732;" d="M282 105c0-23.196 18.804-42 42-42h380c23.196 0 42 18.804 42 42V415.728c-38.888 12.635-67 49.17-67 92.272 0 43.101 28.112 79.637 67 92.272V659c0 23.196-18.804 42-42 42H324c-23.196 0-42-18.804-42-42v-58.728c38.888-12.635 67-49.17 67-92.272 0-43.101-28.112-79.637-67-92.272V105z m-30 366c20.435 0 37 16.565 37 37s-16.565 37-37 37h-30V659c0 56.333 45.667 102 102 102h380c56.333 0 102-45.667 102-102v-114h-30c-20.435 0-37-16.565-37-37s16.565-37 37-37h30v-366c0-56.333-45.667-102-102-102H324c-56.333 0-102 45.667-102 102V471h30z m190.721-193.281h43.946v28.125H442.72c-18.49 0-27.734 6.12-27.734 18.36 0 11.978 9.245 17.968 27.734 17.968h24.805l-58.398 91.601c-4.688 7.292-7.748 12.5-9.18 15.625-1.432 3.125-2.149 6.576-2.149 10.352 0 6.77 2.051 12.207 6.153 16.309 4.101 4.101 9.407 6.152 15.918 6.152 6.64 0 12.011-2.018 16.113-6.055 4.102-4.036 8.887-10.547 14.356-19.531l63.085-98.828 56.446 93.164a944.87 944.87 0 0 0 6.64 11.426c2.344 3.971 4.623 7.356 6.836 10.156 2.214 2.8 4.98 5.11 8.301 6.934 3.32 1.822 7.26 2.734 11.817 2.734 6.51 0 11.816-1.986 15.918-5.957 4.101-3.971 6.152-8.822 6.152-14.55 0-4.558-0.814-8.725-2.442-12.5-1.627-3.777-4.199-8.53-7.714-14.259l-56.25-92.773h24.804c18.36 0 27.54-5.99 27.54-17.969 0-12.24-9.18-18.36-27.54-18.36h-44.14v-28.124h44.14c18.36 0 27.54-6.12 27.54-18.36 0-11.979-9.18-17.968-27.54-17.968h-44.14v-15.625c0-26.433-8.79-39.649-26.368-39.649-17.838 0-26.757 13.216-26.757 39.649V241.39H442.72c-18.49 0-27.734 5.99-27.734 17.968 0 12.24 9.245 18.36 27.734 18.36z"  horiz-adv-x="1024" />

    
    <glyph glyph-name="pro-search" unicode="&#58733;" d="M401 153C230.896 153 93 290.896 93 461s137.896 308 308 308 308-137.896 308-308-137.896-308-308-308z m0 60c136.967 0 248 111.033 248 248 0 136.967-111.033 248-248 248-136.967 0-248-111.033-248-248 0-136.967 111.033-248 248-248zM579.996 274.524l42.427 42.426L850.11 89.262l-42.426-42.427z"  horiz-adv-x="1024" />

    
    <glyph glyph-name="pro-stock-manage" unicode="&#58734;" d="M764 437h119L512 768 141 437h119v-306.845C260 101.351 283.343 78 312.138 78h399.724C740.657 78 764 101.35 764 130.155V437z m60-60v-246.845C824 68.218 773.799 18 711.862 18H312.138C250.2 18 200 68.218 200 130.155V377h-59c-55.117 0-81.072 68.078-39.944 104.771l371 331c22.759 20.305 57.13 20.305 79.888 0l371-331C964.072 445.078 938.117 377 883 377h-59zM291 31.5V244.715h213.043V31.5H291z m228 0.285V245h213.043v-213.215H519z m0 231V476h213.043v-213.215H519zM350.79 91.277h93.67V185.06h-93.67v-93.783z m233 0.285h93.67v93.784h-93.67v-93.784z m-5 231h93.67v93.784h-93.67v-93.784z"  horiz-adv-x="1024" />

    
    <glyph glyph-name="pro-sex" unicode="&#58735;" d="M416.018 50.713c129.164 0 233.868 104.704 233.868 233.868S545.182 518.45 416.018 518.45 182.15 413.745 182.15 284.581s104.704-233.868 233.868-233.868z m224.877 420.75c42.152-50.66 67.482-115.822 67.482-186.785 0-161.455-130.904-292.36-292.36-292.36-161.454 0-292.262 130.808-292.262 292.263 0 161.455 130.904 292.36 292.36 292.36 69.319 0 133.03-24.17 183.207-64.486l122.88 122.977H562.197c-16.145 0-29.197 13.052-29.197 29.197 0 16.146 13.052 29.197 29.197 29.197h233.869c16.145 0 29.197-13.051 29.197-29.197v-233.868c0-16.146-13.052-29.197-29.197-29.197-16.146 0-29.198 13.051-29.198 29.197V597.34L640.895 471.463z"  horiz-adv-x="1024" />

    
    <glyph glyph-name="pro-close" unicode="&#58736;" d="M514-65C267.681-65 68 134.681 68 381S267.681 827 514 827s446-199.681 446-446-199.681-446-446-446z m0 60c213.182 0 386 172.818 386 386S727.182 767 514 767 128 594.182 128 381s172.818-386 386-386zM658.103 568.53l42.427-42.427L368.897 194.47l-42.427 42.427zM326.47 526.103l42.427 42.427L700.53 236.897l-42.427-42.427z"  horiz-adv-x="1024" />

    
    <glyph glyph-name="pro-news" unicode="&#58737;" d="M366 235.574L408.425 278l148.492-148.492-42.426-42.427zM662.92 235.574L620.492 278 472.001 129.508l42.426-42.427zM199 650v-358h627V650H199z m-30 60h687c16.569 0 30-13.431 30-30v-418c0-16.569-13.431-30-30-30H169c-16.569 0-30 13.431-30 30V680c0 16.569 13.431 30 30 30zM304.431458 471m4.24264 4.242641l48.083261 48.083261q4.242641 4.242641 8.485282 0l48.083261-48.083261q4.242641-4.242641 0-8.485282l-48.083261-48.083261q-4.242641-4.242641-8.485282 0l-48.083261 48.083261q-4.242641 4.242641 0 8.485282ZM456.431458 471m4.24264 4.242641l48.083261 48.083261q4.242641 4.242641 8.485282 0l48.083261-48.083261q4.242641-4.242641 0-8.485282l-48.083261-48.083261q-4.242641-4.242641-8.485282 0l-48.083261 48.083261q-4.242641 4.242641 0 8.485282ZM608.431458 471m4.24264 4.242641l48.083261 48.083261q4.242641 4.242641 8.485282 0l48.083261-48.083261q4.242641-4.242641 0-8.485282l-48.083261-48.083261q-4.242641-4.242641-8.485282 0l-48.083261 48.083261q-4.242641 4.242641 0 8.485282Z"  horiz-adv-x="1024" />

    
    <glyph glyph-name="pro-goods" unicode="&#58738;" d="M805.5 670.902l30-573.46v-0.17c0-29.244-22.534-51.772-51.786-51.772H240.286c-29.252 0-51.786 22.528-51.786 51.773v0.226l40 573.462c0.12 29.13 22.612 51.539 51.786 51.539h473.428c29.193 0 51.696-22.438 51.786-51.598zM792.309 97.12l-30 573.438v0.17c0 5.465-3.127 8.591-8.595 8.591H280.286c-5.468 0-8.596-3.126-8.596-8.59v-0.227l-39.998-573.433c0.078-5.338 3.195-8.386 8.594-8.386h543.428c5.416 0 8.536 3.068 8.595 8.437zM673.11 494.439c-4.167-30.927-24.482-59.93-55.534-81.988C586.672 390.498 547.82 377.5 512 377.5s-74.672 12.998-105.577 34.95c-31.195 22.16-51.554 51.33-55.59 82.417-15.336 5.992-26.333 20.57-26.333 36.99 0 21.598 17.14 38.643 38.821 38.643 21.682 0 38.822-17.045 38.822-38.643 0-10.828-4.729-20.845-12.848-28.56 1.21-21.46 16.013-42.826 40.44-59.798 24.387-16.947 55.446-27.285 82.265-27.285 26.819 0 57.878 10.338 82.266 27.285 24.426 16.972 39.23 38.339 40.44 59.797-8.12 7.716-12.849 17.733-12.849 28.561 0 21.598 17.14 38.643 38.822 38.643 21.681 0 38.821-17.045 38.821-38.643 0-18.04-10.408-32.603-26.39-37.418z"  horiz-adv-x="1024" />

    
    <glyph glyph-name="pro-dollar" unicode="&#58739;" d="M514.5 804.5c232.496 0 421-188.504 421-421s-188.504-421-421-421-421 188.504-421 421 188.504 421 421 421z m0-794.458c205.922 0 373.458 167.54 373.458 373.458 0 205.918-167.536 373.458-373.458 373.458-205.922 0-373.458-167.54-373.458-373.458 0-205.918 167.536-373.458 373.458-373.458z m20.29 153.126v-27.07c0-6.912-1.615-12.115-5.698-15.268-4.382-3.331-9.254-5.022-14.592-5.022-7.385 0-12.286 1.55-15.115 4.3-3.667 3.45-5.175 8.9-5.175 15.99v27.128l-6.46 1.025c-38.273 6.239-68.849 26.901-90.502 61.091l-0.072 0.114-0.067 0.116c-3.66 6.342-4.094 13.995-1.632 22.865l0.104 0.373 0.147 0.359c2.53 6.155 7.218 8.967 14.351 8.967h0.12l0.118-0.004c8.94-0.328 15.66-3.54 20.107-10.042 14.241-21.361 32.385-35.277 54.005-41.534l9.781-2.818v173.53l-5.541 1.623c-66.388 19.757-99.528 56.121-99.527 110.43 0.396 33.417 10.8 60.772 30.966 80.93 17.378 18.225 40.068 28.901 67.268 31.752l6.833 0.745v28.32l0.008 0.163c0.318 6.33 1.93 11.754 5.067 14.89l0.12 0.12 0.125 0.113c3.684 3.32 8.744 4.841 14.97 4.841 7.474 0 12.407-1.588 15.218-4.403l0.217-0.218 0.197-0.238c3.14-3.805 4.658-9.15 4.658-15.43v-27.556l6.128-1.229c33.587-6.603 61.052-27.238 81.462-60.99 2.846-4.753 2.273-11.507-0.655-19.274l-0.182-0.483-0.257-0.449c-3.291-5.76-8.673-9.1-15.34-9.382l-0.265-0.011-0.265 0.01c-7.707 0.304-13.54 2.484-16.735 7.216l-0.176 0.26-0.15 0.276c-10.595 19.51-25.214 32.618-43.37 39.013l-10.194 3.582v-159.367l5.336-1.675 0.02-0.006c66.626-21.128 99.713-61.99 99.711-123.825-0.399-32.063-12.174-59.393-34.893-80.866-18.213-16.99-39.728-27.746-63.846-31.906l-6.328-1.076zM500.71 403.903v-0.002 6.5-6.498z m-6.5 10.183V562.044l-8.84-1.407c-15.586-2.49-27.541-8.478-35.768-17.744l-0.09-0.102-0.094-0.097c-13.048-13.516-19.713-31.414-19.725-53.394 0.554-30.272 18.274-53.7 53.677-70.18l10.84-5.034zM429.694 489.3v-0.057 0.114-0.057z m146.394-265.168c15.461 13.958 23.218 31.636 23.22 52.878-0.481 36.865-18.23 64.21-53.37 82.047l-11.147 5.595v-162.285l10.216 3.665c11.995 4.314 22.445 10.412 31.081 18.1z"  horiz-adv-x="1024" />

    
    <glyph glyph-name="pro-cars" unicode="&#58740;" d="M754.86 558.038l126.206-96.556 0.112-0.088c8.94-7.155 14.322-17.923 14.322-28.852v-212.514c0-28.853-22.22-51.084-51.063-51.084h-70.685c-9.902-34.878-41.308-59.444-77.856-59.444-36.548 0-67.955 24.566-77.856 59.444H417.252c-9.902-34.878-41.308-59.444-77.856-59.444-36.548 0-67.955 24.566-77.856 59.444h-40.977c-28.843 0-51.063 22.23-51.063 51.084V606.417c0 28.853 22.22 51.083 51.063 51.083h401.062c28.843 0 51.063-22.23 51.063-51.083v-38.084h51.43c10.863 0 22.484-3.712 30.742-10.295z m-542.652-197.76H629.98V606.417c0 5.327-3.032 8.36-8.354 8.36H220.562c-5.321 0-8.354-3.033-8.354-8.36v-246.14z m127.188-208.056c21.661 0 38.062 16.409 38.062 38.084 0 21.674-16.4 38.083-38.062 38.083s-38.063-16.409-38.063-38.083c0-21.675 16.401-38.084 38.063-38.084z m356.5 0c21.661 0 38.062 16.409 38.062 38.084 0 21.674-16.4 38.083-38.062 38.083s-38.063-16.409-38.063-38.083c0-21.675 16.401-38.084 38.063-38.084z m156.896 165.334H212.208v-97.528c0-5.328 3.033-8.361 8.355-8.361h40.977c9.901 34.878 41.308 59.444 77.856 59.444 36.548 0 67.954-24.566 77.856-59.444H618.04c9.901 34.878 41.308 59.444 77.856 59.444 36.548 0 67.954-24.566 77.856-59.444h70.686c5.321 0 8.354 3.033 8.354 8.36v97.529z m0 42.722v54.43c0 6.887-3.514 13.935-9.401 18.668l-109.871 84.67-0.094 0.074c-6.245 4.998-13.72 7.491-22.676 7.491h-38.063v-165.333h180.105z"  horiz-adv-x="1024" />

    
    <glyph glyph-name="pro-sweep-code" unicode="&#58741;" d="M242.755 656.176v-98.326H195.85v145.3h136.3v-46.974h-89.395z m538.49 0H691.85V703.15h136.3v-145.3h-46.905v98.326z m-539.49-544.352h89.395v-46.974h-136.3v145.3h46.905v-98.326z m539.49 0V210.15h46.905v-145.3h-136.3v46.974h89.395zM192.85 407.15h637.3v-47.3h-637.3v47.3z"  horiz-adv-x="1024" />

    
    <glyph glyph-name="pro-share" unicode="&#58742;" d="M627.774-29.8c-79.975 0-145.026 65.044-145.026 145.01s65.05 145.01 145.026 145.01c79.975 0 145.026-65.044 145.026-145.01S707.749-29.8 627.774-29.8z m0 243.9c-54.527 0-98.902-44.37-98.902-98.89s44.375-98.89 98.902-98.89 98.902 44.37 98.902 98.89-44.375 98.89-98.902 98.89z m-406.548 16.26c-79.975 0-145.026 65.044-145.026 145.01s65.051 145.01 145.026 145.01c79.975 0 145.026-65.044 145.026-145.01s-65.05-145.01-145.026-145.01z m0 243.9c-54.527 0-98.902-44.37-98.902-98.89s44.375-98.89 98.902-98.89 98.902 44.37 98.902 98.89-44.375 98.89-98.902 98.89z m406.548 32.52c-79.975 0-145.026 65.044-145.026 145.01S547.798 796.8 627.774 796.8c79.975 0 145.026-65.044 145.026-145.01s-65.051-145.01-145.026-145.01z m0 243.9c-54.527 0-98.902-44.37-98.902-98.89s44.375-98.89 98.902-98.89 98.902 44.37 98.902 98.89-44.375 98.89-98.902 98.89zM319.342 409.86l-28.13 36.549L513.397 617.3l28.13-36.549L319.342 409.86z m16.965-69.258L525.724 185.66l-29.206-35.696L307.1 304.906l29.207 35.696z"  horiz-adv-x="1024" />

    
    <glyph glyph-name="pro-edit" unicode="&#58743;" d="M179 139m30 0l610 0q30 0 30-30l0 0q0-30-30-30l-610 0q-30 0-30 30l0 0q0 30 30 30ZM719.29 564.676l-49.717-49.763-89.73 89.81 49.76 49.784a20.935 20.935 0 0 0 14.867 6.16c3.236 0 9.496-0.805 14.846-6.16l59.974-60.029c8.206-8.236 8.206-21.566 0-29.802zM404.383 249.483l-99.456-9.737 9.749 99.547 235.265 235.48 89.729-89.79-235.287-235.5z m344.81 374.946l-59.953 60.008A63.075 63.075 0 0 1 644.47 703c-16.22 0-32.419-6.18-44.79-18.563l-320.3-320.59a21.123 21.123 0 0 1-6.09-13.145l-12.984-132.863C259.248 205.435 269.082 195 281.242 195c0.592 0 1.205 0.021 1.797 0.063l132.743 13.018a20.869 20.869 0 0 1 13.132 6.096l320.279 320.57c24.742 24.764 24.742 64.917 0 89.682z"  horiz-adv-x="1024" />

    
    <glyph glyph-name="pro-user-manage" unicode="&#58744;" d="M617.878 277.314a268.2 268.2 0 0 1-107.313 37.437 220.39 220.39 0 0 0-21.985-1.084h-5.23c-125.617-2.616-233.014-91.634-256.55-214.742C224.183 85.847 213.722 78 200.647 78h-5.23c-15.692 2.616-23.538 18.31-20.922 31.387 21.008 109.943 96.936 196.346 196.4 235.667-73.312 39.321-120.473 115.261-120.473 204.28C250.423 680.2 355.118 785 486.053 785c130.933 0 235.628-104.712 235.628-235.667 0-86.353-48.622-163.233-118.727-204.267 18.87-8 36.843-17.716 53.697-28.979l-38.773-38.773z m-315.15 272.02c0-96.953 78.542-178.124 178.007-183.355h7.845c99.465 2.703 180.623 83.874 180.623 183.354 0 102.096-81.158 183.268-183.238 183.268s-183.238-81.172-183.238-183.268z m363.947-235.755c0-15.693 10.46-26.156 26.152-26.156H823.76c15.691 0 26.152 10.463 26.152 26.156 0 15.694-10.46 26.157-26.152 26.157H692.914c-13.163 0.087-26.239-10.376-26.239-26.157z m157.086-75.94H614.284c-15.691 0-26.152-10.462-26.152-26.156 0-15.693 10.46-26.156 26.152-26.156H823.76c15.691 0 26.152 10.463 26.152 26.156 0.087 15.694-10.374 26.157-26.152 26.157zM616.986 132.929c-15.69 0-26.152-10.463-26.152-26.156 0-15.694 10.461-26.156 26.152-26.156h206.862c15.691 0 26.152 10.462 26.152 26.156 0 15.693-13.163 26.156-26.24 26.156H616.987z"  horiz-adv-x="1024" />

    
    <glyph glyph-name="pro-email" unicode="&#58745;" d="M515.154 371c-10.154 0-20.308 1.696-28.77 6.784l-341.849 159.43c-11.846 6.785-18.615 20.353-11.846 33.922 6.77 13.568 20.308 18.657 33.846 11.872l340.157-161.126c5.077-1.697 10.154-1.697 15.23 0l343.542 161.126c11.846 5.088 27.077 0 33.847-11.872 6.769-13.57 0-27.137-11.847-33.922l-343.54-161.126c-8.462-3.392-18.616-5.088-28.77-5.088zM754.797 102H274.512C191.646 102 124 169.638 124 252.495V531.504C124 614.362 191.646 682 274.512 682H756.49C839.354 682 907 614.362 907 531.504v-279.009C905.31 169.638 837.664 102 754.797 102zM274.512 631.271c-54.117 0-99.778-43.965-99.778-99.767v-279.009c0-54.11 43.97-99.766 99.778-99.766H756.49c54.116 0 99.777 43.964 99.777 99.766V531.504c0 54.111-43.97 99.767-99.777 99.767H274.512z"  horiz-adv-x="1024" />

    
    <glyph glyph-name="pro-time" unicode="&#58746;" d="M514-65C267.681-65 68 134.681 68 381S267.681 827 514 827s446-199.681 446-446-199.681-446-446-446z m0 60c213.182 0 386 172.818 386 386S727.182 767 514 767 128 594.182 128 381s172.818-386 386-386zM513.5 655.841c16.569 0 30-13.431 30-30V381c0-16.569-13.431-30-30-30-16.569 0-30 13.431-30 30V625.841c0 16.569 13.431 30 30 30zM506.235 352.522l15.53 57.956 163.16-49.282c16.006-4.834 25.282-21.502 20.955-37.652-4.155-15.507-20.095-24.71-35.602-20.554a29.07 29.07 0 0 0-0.881 0.25l-163.162 49.282z"  horiz-adv-x="1024" />

    
    <glyph glyph-name="pro-rmb" unicode="&#58747;" d="M510 809.5c232.946 0 422.5-189.554 422.5-422.5S742.946-35.5 510-35.5 87.5 154.054 87.5 387 277.054 809.5 510 809.5z m0-797.849c206.931 0 375.349 168.418 375.349 375.349 0 206.931-168.418 375.349-375.349 375.349-206.931 0-375.349-168.418-375.349-375.349 0-206.931 168.418-375.349 375.349-375.349zM531.072 395.038v-59.265h125.96c8.826 0 15.968-7.177 15.968-16.017v-9.254c0-8.84-7.142-16.017-15.968-16.017h-125.96v-100.468c0-8.84-7.141-16.017-15.968-16.017h-9.208c-8.827 0-15.968 7.177-15.968 16.017V294.58h-125.96c-8.826 0-15.968 7.177-15.968 16.017v9.254c0 8.84 7.142 16.017 15.968 16.017h125.96v59.17h-125.96c-8.826 0-15.968 7.176-15.968 16.017v9.254c0 8.84 7.142 16.017 15.968 16.017h125.96v29.016l-94.328 94.79c-6.221 6.252-6.221 16.332 0 22.584l6.551 6.583a15.878 15.878 0 0 0 22.554 0.002l85.84-86.171 85.748 86.169a15.878 15.878 0 0 0 22.556 0l6.55-6.583c6.222-6.252 6.222-16.332 0-22.584l-94.327-94.79v-29.016h125.96c8.826 0 15.968-7.177 15.968-16.017v-9.254c0-8.84-7.142-16.017-15.968-16.017h-125.96z"  horiz-adv-x="1024" />

    
    <glyph glyph-name="pro-ab" unicode="&#58748;" d="M207 612h522v-60H207zM498 552v-522h-60V552zM333 90h264v-60H333zM207 570h79v-60h-79zM650 570h79v-60h-79zM577 364h299v-34H577zM744 330v-300h-34V330zM649 64h151v-34H649zM577 340h45v-34h-45zM831 340h45v-34h-45z"  horiz-adv-x="1024" />

    
    <glyph glyph-name="pro-business" unicode="&#58749;" d="M783.448 50.658c-9.334-6.444-18.811-8.652-32.044-8.652H278.596c-9.49 0-16.197 1.388-30.302 5.417l-0.008 0.002-0.488 0.14-0.467 0.2c-9.863 4.227-18.383 9.907-25.507 17.03-7.123 7.122-12.803 15.643-17.03 25.508-4.078 9.514-5.758 19.261-5.758 31.263V625.043c0 9.493 1.39 16.21 5.419 30.31l0.14 0.488 0.199 0.466c4.226 9.862 9.907 18.383 17.03 25.508 7.123 7.123 15.643 12.803 25.507 17.03 9.515 4.078 19.261 5.758 31.265 5.758h77.67l12.031-44.113h-82.034c-16.373 0-44.392-22.164-44.392-35.447v-502.2c0-16.026 20.698-36.724 36.725-36.724h472.808c16.027 0 36.725 20.698 36.725 36.725V625.043c0 16.027-20.698 36.725-36.725 36.725h-79.56v44.113h79.56c9.493 0 16.206-1.389 30.31-5.42l0.488-0.138 0.467-0.2c9.863-4.228 18.383-9.908 25.507-17.03 7.123-7.123 12.803-15.643 17.03-25.508 4.078-9.515 5.758-19.262 5.758-31.264v-502.2c0-9.492-1.389-16.205-5.419-30.31l-0.14-0.487-0.199-0.466c-4.226-9.862-9.907-18.383-17.03-25.508-6.934-6.935-15.193-12.501-24.728-16.692zM425.848 774.886C444.202 807.666 477.47 826 517.555 826c40.872 0 73.728-17.736 91.79-51.114h39.83c31.502 0 54.003-17.309 54.002-46.43L701.9 618.562l-7.998 0.093v-8H326.82V728.55c0 29.027 22.502 46.336 54.004 46.336h45.023zM693.9 618.654h-0.001v8-8zM372.213 728.712c0.004 0.61 0.033 0.878 0.028 0.862-0.144-0.433-0.487-0.905-0.823-1.145-0.01-0.007 0.07 0.035 0.265 0.11 0.152 0.058 0.329 0.116 0.53 0.173z m90.683 7.94l0.003 0.027v-0.003l-0.001-0.005v-0.007l-0.002-0.011v0z m194.88-7.645c0.237-0.072 0.374-0.132 0.423-0.166a1.562 1.562 0 0 0-0.476 0.589c0.01-0.025 0.037-0.16 0.052-0.423z m0.012-74.24v-8l8 8h-8z m-285.576 0h-9.277v-16h9.277v16zM319 464m30 0l231 0q30 0 30-30l0 0q0-30-30-30l-231 0q-30 0-30 30l0 0q0 30 30 30ZM319 324m30 0l324 0q30 0 30-30l0 0q0-30-30-30l-324 0q-30 0-30 30l0 0q0 30 30 30Z"  horiz-adv-x="1025" />

    
    <glyph glyph-name="pro-fullscreen" unicode="&#58750;" d="M768.794 597.17L588.2 416.575 545.576 459.2l180.593 180.594H578.52V700.03H829.03v-250.51h-60.236V597.17zM300.831 129.205h147.65v-60.236H197.97V319.48h60.236v-147.65L438.8 352.425l42.624-42.624-180.593-180.594z m-42.625 510.588v-212.826H197.97V700.03h273.062v-60.236H258.206z m510.588-297.762h60.236V68.97H555.968v60.236h212.826V342.032z"  horiz-adv-x="1024" />

    
    <glyph glyph-name="pro-fullscreen1" unicode="&#58751;" d="M712.08 211.578L823.498 100.16a29.461 29.461 0 0 0-12.99-49.697c-10.299-2.7-21.254 0.368-28.624 7.994L670.422 169.919v-90.646c0-16.271-13.19-29.461-29.461-29.461-16.27 0-29.461 13.19-29.461 29.46V241.04c0 16.27 13.19 29.461 29.461 29.461h161.766c16.271 0 29.461-13.19 29.461-29.461 0-16.27-13.19-29.461-29.46-29.461H712.08zM233.16 58.502a29.461 29.461 0 0 0-49.697 12.99c-2.7 10.299 0.368 21.254 7.994 28.624l111.462 111.462h-90.646c-16.271 0-29.461 13.19-29.461 29.461 0 16.27 13.19 29.461 29.46 29.461H374.04c16.27 0 29.461-13.19 29.461-29.461v-161.766c0-16.271-13.19-29.461-29.461-29.461-16.27 0-29.461 13.19-29.461 29.46V169.92L233.16 58.502z m569.567 479.92c16.271 0 29.461-13.19 29.461-29.46 0-16.272-13.19-29.462-29.46-29.462H640.96c-16.27 0-29.461 13.19-29.461 29.461V670.727c0 16.271 13.19 29.461 29.461 29.461 16.27 0 29.461-13.19 29.461-29.46v-90.647l111.433 111.432a29.461 29.461 0 0 0 49.687-13.025c2.692-10.301-0.383-21.254-8.013-28.617L712.08 538.422h90.647z m-458.15 41.658v90.647c0 16.271 13.191 29.461 29.462 29.461 16.27 0 29.461-13.19 29.461-29.46V508.96c0-16.27-13.19-29.461-29.461-29.461H212.273c-16.271 0-29.461 13.19-29.461 29.461 0 16.27 13.19 29.461 29.46 29.461h90.647L191.487 649.855a29.461 29.461 0 0 0 13.025 49.687c10.301 2.692 21.254-0.383 28.617-8.013L344.578 580.08z"  horiz-adv-x="1024" />

    
    <glyph glyph-name="pro-exit-fullscreen" unicode="&#58752;" d="M738.955 114.922h-96.682c-14.89 0-26.961-12.07-26.961-26.96 0-14.891 12.07-26.962 26.96-26.962H804.04c14.89 0 26.961 12.07 26.961 26.961V249.727c0 14.89-12.07 26.961-26.961 26.961-14.89 0-26.961-12.07-26.961-26.96v-96.683l-115.73 115.73a26.961 26.961 0 1 1-38.11-38.136l115.717-115.717z m-499.033 38.123v96.682c0 14.89-12.07 26.961-26.96 26.961-14.891 0-26.962-12.07-26.962-26.96V87.96c0-14.89 12.07-26.961 26.961-26.961h161.766c14.89 0 26.961 12.07 26.961 26.961 0 14.89-12.07 26.961-26.96 26.961h-96.683l115.73 115.73a26.961 26.961 0 1 1-38.136 38.11L239.922 153.045z m499.033 500.033h-96.682c-14.89 0-26.961 12.07-26.961 26.96 0 14.891 12.07 26.962 26.96 26.962H804.04c14.89 0 26.961-12.07 26.961-26.961v-161.766c0-14.89-12.07-26.961-26.961-26.961-14.89 0-26.961 12.07-26.961 26.96v96.683l-115.73-115.73a26.961 26.961 0 1 0-38.11 38.136l115.717 115.717z m-499.033-38.123v-96.682c0-14.89-12.07-26.961-26.96-26.961-14.891 0-26.962 12.07-26.962 26.96V680.04c0 14.89 12.07 26.961 26.961 26.961h161.766c14.89 0 26.961-12.07 26.961-26.961 0-14.89-12.07-26.961-26.96-26.961h-96.683l115.73-115.73a26.961 26.961 0 1 0-38.136-38.11L239.922 614.955z"  horiz-adv-x="1025" />

    
    <glyph glyph-name="pro-appointment" unicode="&#58753;" d="M202.3 57.425c-43.241 0-78.4 35.159-78.4 78.4v481.5c0 43.241 35.159 78.4 78.4 78.4h582.375c43.241 0 78.4-35.159 78.4-78.4V376.25h-59V617.325c0 10.684-8.716 19.4-19.4 19.4H202.3c-10.684 0-19.4-8.716-19.4-19.4v-481.5c0-10.684 8.716-19.4 19.4-19.4h339.95l25.225-59H202.3zM673.5 26c-60.583 0-117.645 23.591-160.497 66.345C470.15 135.103 446.5 192.044 446.5 252.5s23.649 117.397 66.503 160.155C555.855 455.409 612.917 479 673.5 479c60.583 0 117.645-23.591 160.497-66.345C876.85 369.897 900.5 312.956 900.5 252.5s-23.649-117.397-66.503-160.155C791.145 49.591 734.083 26 673.5 26z m0 407C573.429 433 492 352.038 492 252.5S573.429 72 673.5 72 855 152.962 855 252.5 773.571 433 673.5 433z m14.65-215.956c-0.73-0.05-0.73-0.05-0.817-0.044-12.079 0-23.535 4.733-32.065 13.256-8.63 8.624-13.357 20.102-13.267 32.234l0.23 52.984c0.103 15.293 12.543 27.628 27.741 27.526h4.81c15.298-0.103 27.642-12.534 27.54-27.763l-0.195-38.066 38.085 0.195c15.33 0.102 27.788-12.251 27.788-27.573v-4.712c0.102-15.325-12.26-27.774-27.557-27.774l-52.006-0.226-0.288-0.037zM848.45 538.3v-59H146.325v59H848.45zM433.95 334H234.225c-16.316 0-29.5 13.184-29.5 29.5 0 16.316 13.184 29.5 29.5 29.5h199.8c16.316 0 29.5-13.184 29.5-29.542C463.427 347.153 450.244 334 433.95 334z m-54.6-111H234.225c-16.316 0-29.5 13.184-29.5 29.5 0 16.316 13.184 29.5 29.5 29.5h145.2c16.316 0 29.5-13.184 29.5-29.542C408.827 236.153 395.644 223 379.35 223z"  horiz-adv-x="1024" />

    
    <glyph glyph-name="pro-location" unicode="&#58754;" d="M852.916 604.37c-18.598 42.918-45.208 81.385-79.04 114.414-33.833 33.028-73.106 58.838-116.93 76.934C611.64 814.507 563.561 824 514 824c-49.561 0-97.639-9.493-142.946-28.183-43.824-18.096-83.097-44.005-116.93-76.934-33.832-33.029-60.442-71.595-79.04-114.413C155.794 559.97 146 512.702 146 464.05c0-69.815 16.718-139.333 49.561-206.379 26.413-53.893 63.312-106.403 109.807-156.341 79.436-85.241 162.73-137.355 186.374-151.298 6.826-4.054 14.542-6.032 22.16-6.032 7.715 0 15.332 1.978 22.158 6.032 23.643 13.943 106.938 66.057 186.374 151.298 46.495 49.84 83.394 102.448 109.807 156.341C865.28 324.618 882 394.037 882 463.951c0 48.652-9.794 95.92-29.084 140.42zM514 3c-67.877 43.245-309 214.472-309 463.52 0 80.402 32.033 155.952 90.228 212.925C353.629 736.521 431.291 768 514 768s160.371-31.48 218.772-88.658C790.967 622.472 823 546.922 823 466.52 823 217.472 581.877 46.245 514 3zM515 628c-94.99 0-172-77.01-172-172s77.01-172 172-172 172 77.01 172 172-77.01 172-172 172z m79.2-251.2C573 355.7 544.9 344 515 344c-29.9 0-58 11.7-79.2 32.8C414.7 398 403 426.1 403 456c0 29.9 11.7 58 32.8 79.2C457 556.4 485.1 568 515 568c29.9 0 58-11.6 79.2-32.8C615.4 514 627 485.9 627 456c0-29.9-11.6-58-32.8-79.2z"  horiz-adv-x="1024" />

    
    <glyph glyph-name="pro-exit-fullscreen1" unicode="&#58755;" d="M610.99 524.614l180.593 180.594 42.625-42.625-180.594-180.594h147.65v-60.236h-250.51V672.264h60.235v-147.65zM373.385 287.011h-147.65v60.236h250.51v-250.511h-60.235v147.65L235.417 63.792l-42.625 42.625 180.594 180.594z m-115.18 352.783v-212.826H197.97V700.03h273.062v-60.236H258.206z m510.588-297.762h60.236V68.97H555.968v60.236h212.826V342.032z"  horiz-adv-x="1024" />

    
    <glyph glyph-name="pro-save" unicode="&#58756;" d="M261.25 668.375c-16.361 0-29.625-13.264-29.625-29.625v-475.5c0-16.361 13.264-29.625 29.625-29.625h475.5c16.361 0 29.625 13.264 29.625 29.625v475.5c0 16.361-13.264 29.625-29.625 29.625h-475.5z m0 59.625h475.5c49.291 0 89.25-39.959 89.25-89.25v-475.5c0-49.291-39.959-89.25-89.25-89.25h-475.5c-49.291 0-89.25 39.959-89.25 89.25v475.5c0 49.291 39.959 89.25 89.25 89.25zM320.688 678.375V559.5c0-21.884 17.74-39.625 39.625-39.625h277.375c21.884 0 39.625 17.74 39.625 39.625V678.375H320.688zM281.063 718h435.875v-158.5c0-43.769-35.482-79.25-79.25-79.25H360.313c-43.77 0-79.25 35.481-79.25 79.25V718zM564 637h83v-73h-83z"  horiz-adv-x="1024" />

    
    <glyph glyph-name="pro-tel" unicode="&#58757;" d="M851.376 74.01c-13.749-20.952-29.269-40.316-45.899-56.266-20.656-19.81-42.278-33.68-64.77-40.013-9.04-2.552-18.762-3.706-29.106-3.706-39.101 0-86.428 16.413-122.922 40.628-13.417 8.904-26.54 19.047-43.503 33.2-17.108 14.272-34.445 29.752-52.791 47.015-44.713 42.082-87.71 87.489-128.121 135.204-38.467 45.416-68.499 85.3-93.773 125.977-36.156 58.191-59.643 113.698-66.651 166.718-0.06 0.464-0.123 0.895-0.26 1.82l-0.086 0.587c-2.483 16.702-2.806 30.086-0.583 44.7 3.76 24.714 14.443 47.983 30.958 69.515 2.758 3.597 5.794 7.063 9.729 11.246a253.236 253.236 0 0 0 14.924 14.58c13.884 12.515 28.37 23.03 43.214 30.991 18.668 10.015 37.357 15.665 55.89 15.665 13.875 0 27.144-3.305 39.108-9.887 8.83-4.861 18.362-13.47 27.042-23.22C436.669 664.28 447.202 647.31 454.79 629c1.158-2.796 2.191-5.253 4.2-10.003 9.621-22.794 14.524-35.202 19.262-49.762 6.376-19.592 10.213-37.458 11.297-54.847 0.914-14.658-0.915-26.428-6.968-38.259-8.105-15.837-22.05-28.037-41.01-38.866-4.476-2.556-7.77-4.726-10.336-6.94-1.29-1.113-2.242-2.119-2.825-2.933-0.07-0.098-0.13-0.187-0.181-0.266 0.046-0.292 0.132-0.667 0.268-1.115 0.439-1.449 1.256-3.243 2.457-5.39 11.556-20.662 24.931-41.56 40.23-63.102 20.753-29.224 43.998-58.071 69.702-86.722 6.453-7.196 13.678-14.294 21.58-21.258 10.11-8.908 19.833-16.33 29.262-22.157 6.648-4.108 12.82-7.082 16.2-7.866 0.08 0.031 0.166 0.065 0.256 0.102 1.179 0.487 2.695 1.304 4.406 2.392 3.18 2.022 6.675 4.75 9.558 7.335 2.297 2.06 4.199 3.834 8.299 7.713-0.23-0.218 2.97 2.82 3.89 3.684 6.945 6.531 11.978 10.685 17.966 14.314 8.49 5.146 17.388 7.989 27.04 7.989 9.379 0 18.281-2.667 26.97-7.443l0.453-0.248 1.052-0.64 120.74-79.327 0.185-0.13-0.015 0.01c9.27-6.383 18.628-16.63 24.618-26.595l3.18-5.29-0.065-0.414c11.094-22.527 9.223-47.144-5.085-68.956zM688.488 223.786c-2.76 1.484-5.982 2.785-9.151 2.785-0.568 0-1.133-0.042-1.694-0.124-7.374-1.09-16.935-10.943-22.16-15.885-2.982-2.824-5.967-5.64-9.026-8.383-9.844-8.828-24.543-19.282-38.29-19.282-0.781 0-1.564 0.035-2.345 0.104-29.223 2.603-72.802 41.966-92.054 63.43-25.703 28.653-50.059 58.652-72.345 90.042-15.158 21.35-29.486 43.477-42.271 66.334-7.06 12.623-10.473 26.74-3.804 40.294 5.7 11.582 17.237 19.611 28.159 25.85 9.578 5.47 20.95 13.279 26.287 23.28 3.461 6.485 3.828 12.718 3.382 19.896-1.958 31.412-15.65 63.98-27.76 92.679-1.438 3.408-2.878 6.815-4.291 10.231-5.65 13.634-13.54 26.6-23.128 37.833-4.635 5.43-12.487 13.671-18.822 17.154-6.663 3.668-13.953 5.375-21.553 5.375-16.022 0-32.68-7.488-46.116-15.692-10.477-6.398-20.41-14.047-29.504-22.282-6.72-6.084-13.704-13.043-19.23-20.247-11.965-15.597-20.801-33.256-23.785-52.803-1.804-11.82-1.188-22.132 0.548-33.827 0.152-1.008 0.3-2.015 0.434-3.027 4.83-36.55 18.853-72.868 35.35-105.659 17.934-35.65 40.02-69.643 63.682-101.752 16.877-22.902 34.681-44.753 53.058-66.447a1630.448 1630.448 0 0 1 122.426-129.434c17.337-16.424 35.1-32.514 53.417-47.842 13.033-10.906 26.738-21.922 40.908-31.325 27.822-18.463 69.365-34.556 102.786-34.556 6.397 0 13.052 0.594 19.227 2.334 36.736 10.35 69.993 50.567 90.09 81.196 7.589 11.568 8.51 23.393 1.534 35.412-3.275 5.643-8.898 11.93-14.313 15.73l-119.646 78.608z"  horiz-adv-x="1024" />

    
    <glyph glyph-name="pro-add" unicode="&#58758;" d="M514-65C267.681-65 68 134.681 68 381S267.681 827 514 827s446-199.681 446-446-199.681-446-446-446z m0 60c213.182 0 386 172.818 386 386S727.182 767 514 767 128 594.182 128 381s172.818-386 386-386zM483.5 616h60v-469h-60zM279 351.5v60h469v-60z"  horiz-adv-x="1024" />

    
    <glyph glyph-name="pro-export" unicode="&#58759;" d="M796.563 739H359.925c-33.638 0-60.938-26-60.938-57.931v-149.663c0-12.106 9.832-21.937 21.938-21.937 12.106 0 21.938 9.831 21.938 21.937V681.07c0 7.719 7.637 14.056 17.062 14.056h436.637c9.425 0 17.063-6.338 17.063-14.056V84.45c0-7.719-7.638-14.056-17.063-14.056H359.925c-9.425 0-17.063 6.337-17.063 14.056V231.431c0 12.106-9.83 21.938-21.937 21.938-12.106 0-21.938-9.832-21.938-21.938V84.45c0-31.931 27.3-57.931 60.938-57.931h436.637c33.638 0 60.938 26 60.938 57.931V681.069C857.5 713 830.119 739 796.562 739zM252.03 268.156c8.694-8.368 9.019-22.262 0.569-31.037a21.97 21.97 0 0 0-15.844-6.744c-5.444 0-10.969 2.031-15.194 6.094L87.744 365.25c-4.469 4.306-6.663 9.913-6.744 15.681v1.138a22.255 22.255 0 0 0 6.662 14.95L221.644 525.88c8.694 8.369 22.587 8.125 31.037-0.568 8.45-8.694 8.125-22.588-0.569-31.038l-94.575-91h493.92c12.106 0 21.937-9.831 21.937-21.938 0-12.106-9.832-21.937-21.938-21.937H157.294l94.737-91.244z"  horiz-adv-x="1025" />

    
    <glyph glyph-name="pro-no-info" unicode="&#58760;" d="M230.999654 576.90724m28.977774 7.764571l51.194069 13.71741q28.977775 7.764571 36.742346-21.213204l0 0q7.764571-28.977775-21.213203-36.742346l-51.194069-13.717409q-28.977775-7.764571-36.742346 21.213203l0 0q-7.764571 28.977775 21.213203 36.742346ZM389.283949 122.337762m7.764572 28.977775l13.717409 51.194069q7.764571 28.977775 36.742346 21.213203l0 0q28.977775-7.764571 21.213203-36.742346l-13.717409-51.194069q-7.764571-28.977775-36.742346-21.213203l0 0q-28.977775 7.764571-21.213203 36.742346ZM377.545725 120.794665m-26.238591 14.544289l-46.354845 25.69491q-26.238591 14.544289-11.694302 40.78288l0 0q14.544289 26.238591 40.782879 11.694302l46.354845-25.69491q26.238591-14.544289 11.694302-40.78288l0 0q-14.544289-26.238591-40.782879-11.694302ZM352.999654 613.75324m28.977774 7.764571l51.194069 13.71741q28.977775 7.764571 36.742346-21.213204l0 0q7.764571-28.977775-21.213203-36.742346l-51.194069-13.717409q-28.977775-7.764571-36.742346 21.213203l0 0q-7.764571 28.977775 21.213203 36.742346ZM442.999654 275.75324m28.977774 7.764571l51.194069 13.71741q28.977775 7.764571 36.742346-21.213204l0 0q7.764571-28.977775-21.213203-36.742346l-51.194069-13.717409q-28.977775-7.764571-36.742346 21.213203l0 0q-7.764571 28.977775 21.213203 36.742346ZM107.999654 537.75324m28.977774 7.764571l51.194069 13.71741q28.977775 7.764571 36.742346-21.213204l0 0q7.764571-28.977775-21.213203-36.742346l-51.194069-13.717409q-28.977775-7.764571-36.742346 21.213203l0 0q-7.764571 28.977775 21.213203 36.742346ZM197.999654 199.75324m28.977774 7.764571l51.194069 13.71741q28.977775 7.764571 36.742346-21.213204l0 0q7.764571-28.977775-21.213203-36.742346l-51.194069-13.717409q-28.977775-7.764571-36.742346 21.213203l0 0q-7.764571 28.977775 21.213203 36.742346ZM475.999654 650.75324m28.977774 7.764571l51.194069 13.71741q28.977775 7.764571 36.742346-21.213204l0 0q7.764571-28.977775-21.213203-36.742346l-51.194069-13.717409q-28.977775-7.764571-36.742346 21.213203l0 0q-7.764571 28.977775 21.213203 36.742346ZM565.999654 312.75324m28.977774 7.764571l51.194069 13.71741q28.977775 7.764571 36.742346-21.213204l0 0q7.764571-28.977775-21.213203-36.742346l-51.194069-13.717409q-28.977775-7.764571-36.742346 21.213203l0 0q-7.764571 28.977775 21.213203 36.742346ZM597.999654 683.75324m28.977774 7.764571l51.194069 13.71741q28.977775 7.764571 36.742346-21.213204l0 0q7.764571-28.977775-21.213203-36.742346l-51.194069-13.717409q-28.977775-7.764571-36.742346 21.213203l0 0q-7.764571 28.977775 21.213203 36.742346ZM687.999654 345.75324m28.977774 7.764571l51.194069 13.71741q28.977775 7.764571 36.742346-21.213204l0 0q7.764571-28.977775-21.213203-36.742346l-51.194069-13.717409q-28.977775-7.764571-36.742346 21.213203l0 0q-7.764571 28.977775 21.213203 36.742346ZM211.54576 154.426654m-7.764571 28.977774l-13.71741 51.194069q-7.764571 28.977775 21.213204 36.742346l0 0q28.977775 7.764571 36.742346-21.213203l13.717409-51.194069q7.764571-28.977775-21.213203-36.742346l0 0q-28.977775-7.764571-36.742346 21.213203ZM174.54576 277.426654m-7.764571 28.977774l-13.71741 51.194069q-7.764571 28.977775 21.213204 36.742346l0 0q28.977775 7.764571 36.742346-21.213203l13.717409-51.194069q7.764571-28.977775-21.213203-36.742346l0 0q-28.977775-7.764571-36.742346 21.213203ZM141.54576 399.426654m-7.764571 28.977774l-13.71741 51.194069q-7.764571 28.977775 21.213204 36.742346l0 0q28.977775 7.764571 36.742346-21.213203l13.717409-51.194069q7.764571-28.977775-21.213203-36.742346l0 0q-28.977775-7.764571-36.742346 21.213203ZM754.245535 305.320361m-7.764571 28.977774l-13.717409 51.194069q-7.764571 28.977775 21.213203 36.742346l0 0q28.977775 7.764571 36.742346-21.213203l13.71741-51.194069q7.764571-28.977775-21.213204-36.742346l0 0q-28.977775-7.764571-36.742346 21.213203ZM717.245535 428.320361m-7.764571 28.977774l-13.717409 51.194069q-7.764571 28.977775 21.213203 36.742346l0 0q28.977775 7.764571 36.742346-21.213203l13.71741-51.194069q7.764571-28.977775-21.213204-36.742346l0 0q-28.977775-7.764571-36.742346 21.213203ZM689.245535 555.320361m-7.764571 28.977774l-13.717409 51.194069q-7.764571 28.977775 21.213203 36.742346l0 0q28.977775 7.764571 36.742346-21.213203l13.71741-51.194069q7.764571-28.977775-21.213204-36.742346l0 0q-28.977775-7.764571-36.742346 21.213203ZM610.245535 717.320361m-7.764571 28.977774l-13.717409 51.194069q-7.764571 28.977775 21.213203 36.742346l0 0q28.977775 7.764571 36.742346-21.213203l13.71741-51.194069q7.764571-28.977775-21.213204-36.742346l0 0q-28.977775-7.764571-36.742346 21.213203ZM687.999705 750.119004m25.441443 15.897578l44.946549 28.085721q25.441443 15.897578 41.33902-9.543865l0 0q15.897578-25.441443-9.543865-41.33902l-44.946549-28.085721q-25.441443-15.897578-41.33902 9.543865l0 0q-15.897578 25.441443 9.543865 41.33902ZM420 116m30 0l289 0q30 0 30-30l0 0q0-30-30-30l-289 0q-30 0-30 30l0 0q0 30 30 30ZM331 41m30 0l289 0q30 0 30-30l0 0q0-30-30-30l-289 0q-30 0-30 30l0 0q0 30 30 30ZM338 387m-30 0a30 30 0 1 1 60 0 30 30 0 1 1-60 0ZM455 417m-30 0a30 30 0 1 1 60 0 30 30 0 1 1-60 0ZM571 446m-30 0a30 30 0 1 1 60 0 30 30 0 1 1-60 0Z"  horiz-adv-x="1024" />

    
    <glyph glyph-name="pro-download" unicode="&#58761;" d="M140 214m30 0l684 0q30 0 30-30l0 0q0-30-30-30l-684 0q-30 0-30 30l0 0q0 30 30 30ZM514 813v-532.139M229 516l283.208-253.514M795.626 516L512.418 262.486M514 813v-532.139"  horiz-adv-x="1024" />

    
    <glyph glyph-name="pro-attachment" unicode="&#58762;" d="M811.854 320.607c-12.19 12.173-31.934 12.194-44.157 0.077l-0.387 0.384-238.583-238.582c-73.291-58.395-180.685-53.426-248.517 14.311-67.832 67.742-72.478 175.016-14.004 248.21l346.987 346.987c46.062 29.71 104.07 28.719 144.38-11.536 40.303-40.25 45.56-102.432 15.808-148.43L466.924 225.184a41.877 41.877 0 0 0-5.708-7.139c-16.347-16.326-42.948-16.329-59.3 0-16.349 16.328-16.35 42.894-0.002 59.222 2.21 2.206 4.619 4.088 7.15 5.699l241.31 243c0.98 0.76 1.913 1.579 2.794 2.45 12.219 12.202 12.219 31.983 0 44.183-12.214 12.2-32.023 12.2-44.241 0-0.358-0.359-0.671-0.745-1.011-1.116l-0.054 0.053-243.879-243.55c-2.3-1.936-4.554-3.96-6.722-6.123-40.971-40.915-40.971-107.492 0.001-148.41 40.972-40.916 107.638-40.916 148.61 0 2.168 2.163 4.194 4.415 6.132 6.715L818.68 486.79c53.995 71.214 48.537 173.356-16.454 238.262-65 64.91-163.024 66.1-234.335 12.18L221.327 389.828c-82.982-97.991-78.248-245.272 14.228-337.624 91.539-91.413 229.427-104.823 327.534-24.539l10.489 9.97L812.19 276.249l-0.259 0.258c12.135 12.21 12.115 31.927-0.077 44.101z"  horiz-adv-x="1024" />

    
    <glyph glyph-name="pro-add1" unicode="&#58763;" d="M81 414m30 0l799 0q30 0 30-30l0 0q0-30-30-30l-799 0q-30 0-30 30l0 0q0 30 30 30ZM481-53m0 30l0 830q0 30 30 30l0 0q30 0 30-30l0-830q0-30-30-30l0 0q-30 0-30 30Z"  horiz-adv-x="1024" />

    
    <glyph glyph-name="pro-notice" unicode="&#58764;" d="M862.091 571.867c-30.411 55.035-73.938 101.206-125.858 133.512-5.29 3.365-9.998 5.605-15.785 5.605-14.627 0-26.527-12.586-26.527-28.058 0-10.5 5.463-19.67 14.926-25.12 91.528-56.646 148.388-161.515 148.388-273.676 0-112.057-56.805-216.878-148.193-273.523-7.564-4.405-15.648-13.424-15.648-25.533 0-15.472 11.922-28.058 26.575-28.058 6.174 0 11.049 2.664 15.524 5.4 52.146 32.272 95.854 78.475 126.4 133.612C893.365 252.838 910 317.881 910 384.131c0 66.096-16.566 131.015-47.91 187.734l0.001 0.002z m-96.495-188.361c0 39.037-9.803 77.365-28.345 110.841-17.998 32.49-43.745 59.703-74.456 78.699l-0.094 0.056c-0.894 0.493-8.901 4.82-14.85 4.82-14.728 0-26.712-12.642-26.712-28.18 0-10.184 5.062-19.618 13.225-24.63 47.905-28.884 77.665-83.142 77.665-141.605 0-59.682-30.68-114.518-80.07-143.111l-0.087-0.054c-7.98-5.119-12.742-14.127-12.742-24.096 0-15.566 11.961-28.23 26.642-28.23h0.143c6.193 0 13.196 3.64 13.491 3.796l0.1 0.055c65.44 38.778 106.09 112.21 106.09 191.639zM545.377 773.63a30.656 30.656 0 0 1-13.902 3.37c-7.2 0-14.266-2.609-19.89-7.344l-0.127-0.106c-4.592-3.87-46.176-38.83-91.459-74.212-81.812-63.974-106.62-75.398-111.496-77.24H204.594c-0.682 0-1.296-0.046-1.866-0.096H149.55c-14.64 0-26.551-12.573-26.551-28.03v-412.033c0-15.44 11.911-28.003 26.55-28.003l178.267-0.052c4.737-1.97 28.09-13.761 100.602-76.522 24.75-21.408 53.349-47.165 80.53-72.529 0.72-0.673 1.19-1.11 1.387-1.29v-0.002c5.817-5.508 13.318-8.541 21.124-8.541 4.452 0 8.982 1.033 13.098 2.99 11.754 5.61 19.65 17.93 19.65 30.652 0.003 1.375 0.255 137.493 0.255 140.207 0 2.769-1.136 572.76-1.147 578.514-0.001 12.988-6.875 24.586-17.94 30.27l0.001-0.003z m-33.52-604.126l-0.407-89.795c-13.544 12.147-26.65 23.664-39.013 34.279-99.244 85.346-124.121 92.487-141.094 92.487a5.022 5.022 0 0 1-0.936-0.096c-0.055 0.004-0.108 0.014-0.16 0.023a5.105 5.105 0 0 1-0.815 0.073H195.384c-15.42 0-18.748 3.738-18.748 21.045V543.901c0 12.146 1.297 17.867 13.158 17.867h120.762c16.521 0 41.727 7.058 150.185 91.412a3236.426 3236.426 0 0 1 50.69 40.269c0.044-52.3 0.427-521.873 0.427-523.947l-0.001 0.002z"  horiz-adv-x="1024" />

    
    <glyph glyph-name="pro-order" unicode="&#58765;" d="M283 654v-550h464V654H283z m524 60v-670H223V714h584zM319 443m8 0l374 0q8 0 8-8l0-44q0-8-8-8l-374 0q-8 0-8 8l0 44q0 8 8 8ZM318.395 633.965m0 30l0 66q0 30 30 30l0 0q30 0 30-30l0-66q0-30-30-30l0 0q-30 0-30 30ZM485 633.965m0 30l0 66q0 30 30 30l0 0q30 0 30-30l0-66q0-30-30-30l0 0q-30 0-30 30ZM647 633.965m0 30l0 66q0 30 30 30l0 0q30 0 30-30l0-66q0-30-30-30l0 0q-30 0-30 30ZM317 671m45 0l300 0q45 0 45-45l0-6q0-45-45-45l-300 0q-45 0-45 45l0 6q0 45 45 45ZM320 316m8 0l374 0q8 0 8-8l0-44q0-8-8-8l-374 0q-8 0-8 8l0 44q0 8 8 8Z"  horiz-adv-x="1024" />

    
    <glyph glyph-name="pro-link-wifi" unicode="&#58766;" d="M343.296 222.498c-10.78 0.006-19.516 8.746-19.511 19.523 0.001 3.291 0.835 6.528 2.424 9.41 38.122 69.3 110.952 112.365 190.066 112.387 78.028-0.1 150.016-42 188.621-109.784 5.326-9.373 2.043-21.287-7.333-26.61-9.376-5.325-21.294-2.042-26.62 7.33-31.652 55.59-90.681 89.958-154.668 90.05-64.883-0.02-124.611-35.345-155.865-92.183a19.47 19.47 0 0 0-17.113-10.122zM237.313 332.934c-10.781 0.005-19.517 8.746-19.512 19.523a19.51 19.51 0 0 0 3.817 11.582c68.765 93.224 178.939 148.865 294.67 148.865 113.74 0 219.073-51.53 288.996-141.371 6.624-8.508 5.088-20.763-3.436-27.372-8.524-6.609-20.77-5.1-27.38 3.422C712.001 427.85 617.912 473.889 516.3 473.889c-103.381 0-201.792-49.721-263.255-133.02a19.523 19.523 0 0 0-15.733-7.936zM123.325 437.815c-10.781 0-19.52 8.738-19.52 19.515a19.51 19.51 0 0 0 4.216 12.11c99.385 125.63 248.198 197.688 408.253 197.688 157.557 0 304.885-70.224 404.219-192.667 6.792-8.37 5.51-20.66-2.863-27.45-8.373-6.789-20.667-5.507-27.46 2.863C798.28 563.144 662.016 628.1 516.274 628.1c-148.032 0-285.677-66.66-377.632-182.884a19.458 19.458 0 0 0-15.317-7.402zM513.593 202.582c29.306 0.004 53.067-23.743 53.07-53.039 0.004-29.296-23.75-53.048-53.057-53.051-29.306-0.004-53.066 23.742-53.07 53.038-0.003 29.296 23.751 53.048 53.057 53.052z"  horiz-adv-x="1024" />

    
    <glyph glyph-name="pro-logistics" unicode="&#58767;" d="M575.65 190.42H416.802v21.958c0 25.645-20.902 46.552-46.584 46.552-25.644 0-46.556-20.92-46.556-46.552v-21.958h-90.397c-27.175 0-49.266 22.113-49.266 49.273v356.07C184 622.916 206.088 645 233.266 645h342.38c27.162 0 49.287-22.096 49.287-49.237v-356.069c0.004-27.152-22.122-49.274-49.284-49.274z m-117.736 43.827h117.732c3.027 0 5.484 2.453 5.484 5.442V595.756a5.485 5.485 0 0 1-5.484 5.48H233.285c-3.035-0.004-5.494-2.462-5.5-5.474v-356.07c0-2.973 2.48-5.445 5.484-5.445h49.266c9.863 39.606 45.798 68.446 87.686 68.446 41.9 0.004 77.792-28.817 87.693-68.446z m314.961-21.87c0 25.623-20.94 46.553-46.584 46.553-25.683 0-46.573-20.904-46.573-46.552v-21.958h-49.305c-27.14 0-49.276 22.128-49.276 49.27V499.88c0 27.21 22.109 49.28 49.276 49.28h116.425c11.477 0 23.866-6.618 42.792-24.52 12.24-11.53 26.714-27.452 40.976-45.025 14.09-17.418 26.962-35.298 36.268-50.396 13.427-21.745 18.254-35.01 18.254-45.738v-143.79c-0.005-27.16-22.113-49.271-49.287-49.271h-1.115l-61.85 13.964v7.994z m62.966 21.87c3.022 0 5.502 2.47 5.502 5.442V382.893c-0.147 0.653-0.45 1.638-0.96 2.974-1.719 4.504-4.95 10.85-10.09 19.264-7.8 12.842-19.057 28.593-31.751 44.447-12.317 15.485-25.224 29.94-36.274 40.669-6.521 6.352-11.7 10.757-15.619 13.522a35.966 35.966 0 0 1-2.53 1.653H630.406c-2.975 0-5.474-2.514-5.474-5.541v-260.188c0-2.98 2.469-5.442 5.474-5.442h8.198c9.876 39.62 45.774 68.446 87.68 68.446 41.87 0 77.778-28.832 87.684-68.45h21.872z m-25.436 240.129l3.245 2.76v0.066l-3.394-2.826h0.15z m-97.775-133.3c-27.228 0-49.301 22.057-49.301 49.242v54.778c0 27.198 22.073 49.28 49.3 49.28h105.643l6.568-7.72 0.069-0.082c10.5-12.612 22.412-27.98 33.173-43.788 17.145-25.186 27.042-45.038 27.042-59.304v-42.405H712.63z m-5.587 104.02v-54.782c0-2.965 2.518-5.467 5.587-5.467l128.133 0.003a41.176 41.176 0 0 1-0.646 1.718c-2.105 5.264-6.052 12.69-12.302 22.523-8.064 12.678-18.591 27.206-30.088 41.52h-85.3c-2.986-0.106-5.384-2.557-5.384-5.515zM370.221 122.02c-49.857 0-90.354 40.483-90.354 90.357 0 49.797 40.525 90.316 90.354 90.316 49.842 0 90.34-40.51 90.34-90.316 0-49.882-40.472-90.357-90.34-90.357z m363.133 0c-49.857 0-90.354 40.483-90.354 90.357 0 49.797 40.525 90.316 90.354 90.316 49.842 0 90.341-40.51 90.341-90.316 0-49.882-40.473-90.357-90.34-90.357z m-399.689 90.362c0-20.184 16.429-36.64 36.556-36.64 20.163 0 36.584 16.442 36.584 36.637-0.002 20.129-16.434 36.555-36.584 36.555-20.129 0-36.556-16.43-36.556-36.552z m363.134 0c0-20.184 16.428-36.64 36.555-36.64 20.163 0 36.584 16.442 36.584 36.637-0.002 20.129-16.434 36.555-36.584 36.555-20.128 0-36.555-16.43-36.555-36.552z"  horiz-adv-x="1024" />

    
    <glyph glyph-name="pro-calendar" unicode="&#58768;" d="M283 654v-500c0-27.614 22.386-50 50-50h364c27.614 0 50 22.386 50 50V654H283z m524 60v-560c0-60.751-49.249-110-110-110H333c-60.751 0-110 49.249-110 110V714h584zM318.395 633.965m0 30l0 66q0 30 30 30l0 0q30 0 30-30l0-66q0-30-30-30l0 0q-30 0-30 30ZM485 633.965m0 30l0 66q0 30 30 30l0 0q30 0 30-30l0-66q0-30-30-30l0 0q-30 0-30 30ZM647 633.965m0 30l0 66q0 30 30 30l0 0q30 0 30-30l0-66q0-30-30-30l0 0q-30 0-30 30ZM275 579m8 0l462 0q8 0 8-8l0-44q0-8-8-8l-462 0q-8 0-8 8l0 44q0 8 8 8ZM412.7 274.8l60 13.5c2.4-6.6 4.2-9.6 7.2-12.9 6.6-7.2 16.2-11.1 28.2-11.1 16.8 0 30.3 7.5 38.4 21 5.7 9.6 8.4 20.4 10.2 40.8-16.2-15.3-33.3-21.6-59.7-21.6-54 0-89.1 32.7-89.1 83.1 0 53.1 40.8 89.4 100.2 89.4 38.1 0 68.4-15.6 86.4-44.4 12.3-19.5 18.9-48 18.9-81 0-31.8-6-61.2-17.1-84-10.5-21.6-29.7-38.7-51-45.6-12-3.9-26.7-6.3-40.2-6.3-28.5 0-51.6 7.8-69.3 23.4-10.2 9.3-15.3 17.4-23.1 35.7z m94.5 77.1c25.8 0 43.5 15.6 43.5 38.7 0 22.5-17.4 38.1-42.3 38.1s-42-15.6-42-38.4c0-23.1 16.2-38.4 40.8-38.4z"  horiz-adv-x="1024" />

    
    <glyph glyph-name="pro-poss-hide" unicode="&#58769;" d="M513.996 266c-158.278 0-316.31 48.37-428.926 144.91a32.577 32.577 0 0 0-11 22.363 32.633 32.633 0 0 0 7.993 23.62c11.874 13.546 32.391 14.887 45.907 3.002 198.586-171.974 574.321-171.974 772.052 0 13.515 11.885 34.032 10.544 45.906-3.001 11.831-13.532 10.511-34.125-3.006-46.008C830.306 314.37 672.273 266 513.996 266zM396.373 124.16a26.296 26.296 0 0 0-5.79 0 32.011 32.011 0 0 0-21.934 13.528c-5.105 7.404-6.84 16.627-4.837 25.384l21.422 126.796c3.127 17.832 20 29.75 37.714 26.638a32.462 32.462 0 0 0 21.087-13.36 32.893 32.893 0 0 0 5.49-24.47l-21.423-126.771c-2.258-15.904-15.775-27.724-31.73-27.745zM879.442 188a31.99 31.99 0 0 0-22.874 9.629L750.192 304.645c-9.212 7.888-13.173 20.275-10.24 32.017 2.935 11.743 12.263 20.834 24.112 23.5 11.832 2.734 24.206-1.34 32.072-10.559l106.4-107.017c12.618-12.544 12.618-32.854 0-45.398A33.861 33.861 0 0 0 879.418 188h0.025z m-730.54 0a33.496 33.496 0 0 0-21.472 9.223 32.214 32.214 0 0 0-9.43 22.785 32.214 32.214 0 0 0 9.43 22.784l105.896 107.42c7.42 10.605 20.414 15.755 33.045 13.097 12.631-2.658 22.474-12.614 25.032-25.32 2.477-12.72-2.89-25.693-13.613-32.904l-105.896-107.42A31.785 31.785 0 0 0 148.903 188z m484.19-64c-15.672 0.044-29.064 11.277-31.807 26.677L579.66 277.541a32.124 32.124 0 0 0 8.457 33.592 32.592 32.592 0 0 0 34.174 6.645c11.736-4.602 19.725-15.504 20.539-27.982l21.623-126.863a31.817 31.817 0 0 0-5.227-24.142 32.288 32.288 0 0 0-20.958-13.29 26.742 26.742 0 0 0-5.178-1.476V124z"  horiz-adv-x="1024" />

    
    <glyph glyph-name="pro-close1" unicode="&#58770;" d="M222.35403 711.258114m21.213203-21.213203l564.978318-564.978319q21.213203-21.213203 0-42.426406l0 0q-21.213203-21.213203-42.426407 0l-564.978318 564.978318q-21.213203 21.213203 0 42.426407l0 0q21.213203 21.213203 42.426407 0ZM174.977875 98.196535m21.213204 21.213203l586.898628 586.898629q21.213203 21.213203 42.426407 0l0 0q21.213203-21.213203 0-42.426407l-586.898628-586.898629q-21.213203-21.213203-42.426407 0l0 0q-21.213203 21.213203 0 42.426407Z"  horiz-adv-x="1024" />

    
    <glyph glyph-name="pro-import" unicode="&#58771;" d="M734.563 741.15H297.925c-33.638 0-60.938-26-60.938-57.931v-149.663c0-12.106 9.832-21.937 21.938-21.937 12.106 0 21.938 9.831 21.938 21.937V683.22c0 7.719 7.637 14.056 17.062 14.056h436.637c9.425 0 17.063-6.338 17.063-14.056V86.6c0-7.719-7.638-14.056-17.063-14.056H297.925c-9.425 0-17.063 6.337-17.063 14.056V233.581c0 12.106-9.83 21.938-21.937 21.938-12.106 0-21.938-9.832-21.938-21.938V86.6c0-31.931 27.3-57.931 60.938-57.931h436.637c33.638 0 60.938 26 60.938 57.931V683.219c0 31.931-27.381 57.931-60.938 57.931zM501.05 270.306c-8.694-8.369-9.019-22.262-0.569-31.037a21.97 21.97 0 0 1 15.844-6.744c5.444 0 10.969 2.031 15.194 6.094L665.338 367.4c4.468 4.306 6.662 9.913 6.743 15.681v1.138a22.255 22.255 0 0 1-6.662 14.95L531.438 528.03c-8.694 8.369-22.588 8.125-31.038-0.569-8.45-8.693-8.125-22.587 0.569-31.037l94.575-91H101.625c-12.106 0-21.937-9.831-21.937-21.938 0-12.106 9.83-21.937 21.937-21.937h494.163l-94.738-91.244z"  horiz-adv-x="1024" />

    
    <glyph glyph-name="pro-set" unicode="&#58772;" d="M455.47 670.772l-17.467-3.444-55.326 66.446a14 14 0 0 1-17.759 3.166l-85.627-49.437a14 14 0 0 1-6.138-16.962l29.963-81.36-11.641-13.394c-24.696-28.414-43.594-61.359-55.769-96.947l-5.758-16.831-85.719-14.78a14 14 0 0 1-11.621-13.796v-98.874a14 14 0 0 1 11.621-13.796l85.747-14.784 5.786-16.761c6.069-17.577 13.849-34.641 23.306-51.022 9.459-16.383 20.349-31.655 32.539-45.7l11.622-13.392-30.07-81.649a14 14 0 0 1 6.138-16.962l85.628-49.437a14 14 0 0 1 17.758 3.166l55.66 66.847 17.455-3.428c36.906-7.25 74.883-7.354 111.835-0.175l17.42 3.384 55.479-66.628a14 14 0 0 1 17.759-3.166l85.627 49.437a14 14 0 0 1 6.137 16.962l-29.88 81.138 11.715 13.404c24.89 28.478 43.939 61.542 56.205 97.283l5.768 16.806 85.123 14.677a14 14 0 0 1 11.622 13.796v98.874a14 14 0 0 1-11.622 13.797l-84.914 14.64-5.768 16.806c-6.093 17.752-13.93 34.984-23.477 51.52-9.546 16.534-20.549 31.935-32.874 46.086l-11.67 13.399 29.78 80.86a14 14 0 0 1-6.138 16.962l-85.628 49.437a14 14 0 0 1-17.758-3.166l-55.27-66.379-17.44 3.409c-37.088 7.249-75.25 7.285-112.36-0.032z m106.095 61.924l32.865 39.47c23.047 27.68 62.675 34.745 93.867 16.736l85.628-49.437c31.192-18.01 44.888-55.86 32.44-89.66l-17.68-48.01a354.743 354.743 0 0 0 28.103-41.599 354.742 354.742 0 0 0 21.978-45.147l50.415-8.692c35.494-6.12 61.427-36.906 61.427-72.924v-98.874c0-36.018-25.933-66.804-61.427-72.924l-50.619-8.727a351.63 351.63 0 0 0-49.963-86.493l17.76-48.224c12.447-33.799-1.249-71.65-32.441-89.66l-85.627-49.437c-31.193-18.009-70.821-10.943-93.868 16.736l-33.106 39.76a351.655 351.655 0 0 0-99.293 0.15l-33.232-39.91c-23.047-27.68-62.675-34.745-93.867-16.736l-85.628 49.437c-31.192 18.01-44.888 55.861-32.44 89.66l17.995 48.863a354.783 354.783 0 0 0-27.746 41.142 354.783 354.783 0 0 0-21.753 44.591l-51.318 8.848c-35.495 6.12-61.427 36.906-61.427 72.924v98.874c0 36.018 25.932 66.804 61.427 72.924l51.176 8.824a351.655 351.655 0 0 0 49.519 86.074l-17.88 48.55c-12.447 33.8 1.248 71.65 32.44 89.66l85.628 49.437c31.192 18.009 70.82 10.943 93.868-16.736l32.883-39.493a351.63 351.63 0 0 0 99.896 0.023zM609.947 214.455c-93.745-54.124-213.617-22.004-267.74 71.741-54.124 93.746-22.005 213.617 71.74 267.741 93.746 54.124 213.618 22.005 267.741-71.74 54.124-93.746 22.005-213.618-71.74-267.742z m-30 51.962c65.048 37.555 87.335 120.731 49.78 185.78-37.555 65.047-120.732 87.334-185.78 49.779-65.047-37.556-87.334-120.732-49.779-185.78s120.732-87.335 185.78-49.78z"  horiz-adv-x="1024" />

    
    <glyph glyph-name="pro-loading" unicode="&#58773;" d="M514 825c16.569 0 30-13.431 30-30v-133c0-16.569-13.431-30-30-30-16.569 0-30 13.431-30 30V795c0 16.569 13.431 30 30 30z m0-689c16.569 0 30-13.431 30-30v-133c0-16.569-13.431-30-30-30-16.569 0-30 13.431-30 30V106c0 16.569 13.431 30 30 30zM202.166 695.834c11.716 11.716 30.71 11.716 42.426 0l94.046-94.045c11.715-11.716 11.715-30.71 0-42.427-11.716-11.715-30.711-11.715-42.427 0l-94.045 94.046c-11.716 11.715-11.716 30.71 0 42.426z m487.196-487.196c11.716 11.715 30.711 11.715 42.427 0l94.045-94.046c11.716-11.715 11.716-30.71 0-42.426-11.716-11.716-30.71-11.716-42.426 0l-94.046 94.045c-11.715 11.716-11.715 30.71 0 42.427zM73 384c0 16.569 13.431 30 30 30h133c16.569 0 30-13.431 30-30 0-16.569-13.431-30-30-30H103c-16.569 0-30 13.431-30 30z m689 0c0 16.569 13.431 30 30 30h133c16.569 0 30-13.431 30-30 0-16.569-13.431-30-30-30H792c-16.569 0-30 13.431-30 30zM202.166 72.166c-11.716 11.716-11.716 30.71 0 42.426l94.045 94.046c11.716 11.715 30.71 11.715 42.427 0 11.715-11.716 11.715-30.711 0-42.427l-94.046-94.045c-11.715-11.716-30.71-11.716-42.426 0z m487.196 487.196c-11.715 11.716-11.715 30.711 0 42.427l94.046 94.045c11.715 11.716 30.71 11.716 42.426 0 11.716-11.716 11.716-30.71 0-42.426l-94.045-94.046c-11.716-11.715-30.71-11.715-42.427 0z"  horiz-adv-x="1024" />

    
    <glyph glyph-name="pro-pack-canelcopy" unicode="&#58774;" d="M486.435 76.621H214.764a8.954 8.954 0 0 0-8.954 8.954V535.51a8.954 8.954 0 0 0 8.954 8.954h228.325a8.954 8.954 0 0 0 8.954-8.954v-47.008a8.954 8.954 0 0 1 8.953-8.954h105.209a8.954 8.954 0 0 1 8.953 8.954V535.51a8.954 8.954 0 0 0 8.954 8.954h228.325a8.954 8.954 0 0 0 8.954-8.954v-92.028C783.203 466.659 738.407 480 690.5 480c-139.728 0-253-113.496-253-253.5 0-56.075 18.171-107.898 48.935-149.879zM791.422 582.52H586.275c-4.926 0-8.92 4.009-8.92 8.954l-11.149 91.777c0 4.945 3.994 8.954 8.92 8.954h144.94c4.927 0 10.834-2.103 13.38-6.716l66.895-91.777c3.109-8.28-2.11-11.192-8.919-11.192z m-348.332 0H237.15c-6.836 0-12.075 2.912-8.955 11.192l67.155 91.778c2.555 4.613 8.486 6.715 13.431 6.715h145.502a8.954 8.954 0 0 0 8.953-8.953l-11.192-91.778a8.954 8.954 0 0 0-8.954-8.954zM691 48c-98.307 0-178 79.917-178 178.5S592.693 405 691 405s178-79.917 178-178.5S789.307 48 691 48z m0 218.305l-31.82 31.82c-11.13 11.13-29.175 11.13-40.305 0-11.13-11.13-11.13-29.175 0-40.305l31.82-31.82-31.82-31.82c-11.13-11.13-11.13-29.175 0-40.305 11.13-11.13 29.175-11.13 40.305 0l31.82 31.82 31.82-31.82c11.13-11.13 29.175-11.13 40.305 0 11.13 11.13 11.13 29.175 0 40.305L731.305 226l31.82 31.82c11.13 11.13 11.13 29.175 0 40.305-11.13 11.13-29.175 11.13-40.305 0L691 266.305z"  horiz-adv-x="1024" />

    


  </font>
</defs>
</svg>
